<?xml version="1.0" encoding="UTF-8" standalone="no"?>
<!DOCTYPE svg PUBLIC "-//W3C//DTD SVG 1.1//EN"
 "http://www.w3.org/Graphics/SVG/1.1/DTD/svg11.dtd">
<!-- Generated by graphviz version 7.0.3 (0)
 -->
<!-- Title: G Pages: 1 -->
<svg width="2802pt" height="1312pt"
 viewBox="0.00 0.00 2802.20 1312.20" xmlns="http://www.w3.org/2000/svg" xmlns:xlink="http://www.w3.org/1999/xlink">
<g id="graph0" class="graph" transform="scale(1 1) rotate(0) translate(21.6 1290.6)">
<title>G</title>
<polygon fill="#111111" stroke="none" points="-21.6,21.6 -21.6,-1290.6 2780.6,-1290.6 2780.6,21.6 -21.6,21.6"/>
<!-- build/static/js/787.2a274074.chunk.js -->
<g id="node1" class="node">
<title>build/static/js/787.2a274074.chunk.js</title>
<path fill="none" stroke="#cfffac" d="M324.83,-650C324.83,-650 103.17,-650 103.17,-650 99.33,-650 95.5,-646.17 95.5,-642.33 95.5,-642.33 95.5,-634.67 95.5,-634.67 95.5,-630.83 99.33,-627 103.17,-627 103.17,-627 324.83,-627 324.83,-627 328.67,-627 332.5,-630.83 332.5,-634.67 332.5,-634.67 332.5,-642.33 332.5,-642.33 332.5,-646.17 328.67,-650 324.83,-650"/>
<text text-anchor="middle" x="214" y="-634.8" font-family="Arial" font-size="14.00" fill="#cfffac">build/static/js/787.2a274074.chunk.js</text>
</g>
<!-- build/static/js/main.2e1bffb7.js -->
<g id="node2" class="node">
<title>build/static/js/main.2e1bffb7.js</title>
<path fill="none" stroke="#cfffac" d="M304.83,-691C304.83,-691 123.17,-691 123.17,-691 119.33,-691 115.5,-687.17 115.5,-683.33 115.5,-683.33 115.5,-675.67 115.5,-675.67 115.5,-671.83 119.33,-668 123.17,-668 123.17,-668 304.83,-668 304.83,-668 308.67,-668 312.5,-671.83 312.5,-675.67 312.5,-675.67 312.5,-683.33 312.5,-683.33 312.5,-687.17 308.67,-691 304.83,-691"/>
<text text-anchor="middle" x="214" y="-675.8" font-family="Arial" font-size="14.00" fill="#cfffac">build/static/js/main.2e1bffb7.js</text>
</g>
<!-- src/App.css -->
<g id="node3" class="node">
<title>src/App.css</title>
<path fill="none" stroke="#cfffac" d="M1167.33,-1269C1167.33,-1269 1096.67,-1269 1096.67,-1269 1092.83,-1269 1089,-1265.17 1089,-1261.33 1089,-1261.33 1089,-1253.67 1089,-1253.67 1089,-1249.83 1092.83,-1246 1096.67,-1246 1096.67,-1246 1167.33,-1246 1167.33,-1246 1171.17,-1246 1175,-1249.83 1175,-1253.67 1175,-1253.67 1175,-1261.33 1175,-1261.33 1175,-1265.17 1171.17,-1269 1167.33,-1269"/>
<text text-anchor="middle" x="1132" y="-1253.8" font-family="Arial" font-size="14.00" fill="#cfffac">src/App.css</text>
</g>
<!-- src/App.jsx -->
<g id="node4" class="node">
<title>src/App.jsx</title>
<path fill="none" stroke="#c6c5fe" d="M717.33,-732C717.33,-732 649.67,-732 649.67,-732 645.83,-732 642,-728.17 642,-724.33 642,-724.33 642,-716.67 642,-716.67 642,-712.83 645.83,-709 649.67,-709 649.67,-709 717.33,-709 717.33,-709 721.17,-709 725,-712.83 725,-716.67 725,-716.67 725,-724.33 725,-724.33 725,-728.17 721.17,-732 717.33,-732"/>
<text text-anchor="middle" x="683.5" y="-716.8" font-family="Arial" font-size="14.00" fill="#c6c5fe">src/App.jsx</text>
</g>
<!-- src/App.jsx&#45;&gt;src/App.css -->
<g id="edge1" class="edge">
<title>src/App.jsx&#45;&gt;src/App.css</title>
<path fill="none" stroke="#757575" d="M725.41,-727.01C776.28,-737.45 861.46,-763.18 903,-822.5 955.34,-897.24 876.01,-1165.49 939,-1231.5 973.85,-1268.02 1033.83,-1270.66 1077.5,-1266.59"/>
<polygon fill="#757575" stroke="#757575" points="1077.72,-1270.08 1087.28,-1265.52 1076.96,-1263.12 1077.72,-1270.08"/>
</g>
<!-- src/components/Authentication/Login.js -->
<g id="node5" class="node">
<title>src/components/Authentication/Login.js</title>
<path fill="none" stroke="#c6c5fe" d="M1250.33,-1151C1250.33,-1151 1013.67,-1151 1013.67,-1151 1009.83,-1151 1006,-1147.17 1006,-1143.33 1006,-1143.33 1006,-1135.67 1006,-1135.67 1006,-1131.83 1009.83,-1128 1013.67,-1128 1013.67,-1128 1250.33,-1128 1250.33,-1128 1254.17,-1128 1258,-1131.83 1258,-1135.67 1258,-1135.67 1258,-1143.33 1258,-1143.33 1258,-1147.17 1254.17,-1151 1250.33,-1151"/>
<text text-anchor="middle" x="1132" y="-1135.8" font-family="Arial" font-size="14.00" fill="#c6c5fe">src/components/Authentication/Login.js</text>
</g>
<!-- src/App.jsx&#45;&gt;src/components/Authentication/Login.js -->
<g id="edge2" class="edge">
<title>src/App.jsx&#45;&gt;src/components/Authentication/Login.js</title>
<path fill="none" stroke="#757575" d="M725.38,-727.44C775.8,-738.3 860.09,-764.42 903,-822.5 971.8,-915.62 863.91,-992.37 939,-1080.5 956.99,-1101.61 982.33,-1115.3 1008.73,-1124.14"/>
<polygon fill="#757575" stroke="#757575" points="1007.65,-1127.47 1018.24,-1127.08 1009.71,-1120.78 1007.65,-1127.47"/>
</g>
<!-- src/components/Authentication/Register.js -->
<g id="node6" class="node">
<title>src/components/Authentication/Register.js</title>
<path fill="none" stroke="#c6c5fe" d="M1258.83,-1071C1258.83,-1071 1005.17,-1071 1005.17,-1071 1001.33,-1071 997.5,-1067.17 997.5,-1063.33 997.5,-1063.33 997.5,-1055.67 997.5,-1055.67 997.5,-1051.83 1001.33,-1048 1005.17,-1048 1005.17,-1048 1258.83,-1048 1258.83,-1048 1262.67,-1048 1266.5,-1051.83 1266.5,-1055.67 1266.5,-1055.67 1266.5,-1063.33 1266.5,-1063.33 1266.5,-1067.17 1262.67,-1071 1258.83,-1071"/>
<text text-anchor="middle" x="1132" y="-1055.8" font-family="Arial" font-size="14.00" fill="#c6c5fe">src/components/Authentication/Register.js</text>
</g>
<!-- src/App.jsx&#45;&gt;src/components/Authentication/Register.js -->
<g id="edge3" class="edge">
<title>src/App.jsx&#45;&gt;src/components/Authentication/Register.js</title>
<path fill="none" stroke="#757575" d="M725.25,-727.96C775.14,-739.32 858.47,-765.92 903,-822.5 952.92,-885.92 884.81,-940.68 939,-1000.5 958.27,-1021.77 985.01,-1035.47 1012.41,-1044.26"/>
<polygon fill="#757575" stroke="#757575" points="1011.31,-1047.58 1021.89,-1047.07 1013.3,-1040.87 1011.31,-1047.58"/>
</g>
<!-- src/components/Category/Category.js -->
<g id="node7" class="node">
<title>src/components/Category/Category.js</title>
<path fill="none" stroke="#c6c5fe" d="M1245.33,-631C1245.33,-631 1018.67,-631 1018.67,-631 1014.83,-631 1011,-627.17 1011,-623.33 1011,-623.33 1011,-615.67 1011,-615.67 1011,-611.83 1014.83,-608 1018.67,-608 1018.67,-608 1245.33,-608 1245.33,-608 1249.17,-608 1253,-611.83 1253,-615.67 1253,-615.67 1253,-623.33 1253,-623.33 1253,-627.17 1249.17,-631 1245.33,-631"/>
<text text-anchor="middle" x="1132" y="-615.8" font-family="Arial" font-size="14.00" fill="#c6c5fe">src/components/Category/Category.js</text>
</g>
<!-- src/App.jsx&#45;&gt;src/components/Category/Category.js -->
<g id="edge4" class="edge">
<title>src/App.jsx&#45;&gt;src/components/Category/Category.js</title>
<path fill="none" stroke="#757575" d="M725.31,-711.27C803.3,-693.63 974.03,-655.01 1067.22,-633.93"/>
<polygon fill="#757575" stroke="#757575" points="1067.73,-637.4 1076.71,-631.78 1066.18,-630.57 1067.73,-637.4"/>
</g>
<!-- src/components/Dashboard/Admin/All Buyer/AllBuyer.js -->
<g id="node8" class="node">
<title>src/components/Dashboard/Admin/All Buyer/AllBuyer.js</title>
<path fill="none" stroke="#c6c5fe" d="M1299.33,-890C1299.33,-890 964.67,-890 964.67,-890 960.83,-890 957,-886.17 957,-882.33 957,-882.33 957,-874.67 957,-874.67 957,-870.83 960.83,-867 964.67,-867 964.67,-867 1299.33,-867 1299.33,-867 1303.17,-867 1307,-870.83 1307,-874.67 1307,-874.67 1307,-882.33 1307,-882.33 1307,-886.17 1303.17,-890 1299.33,-890"/>
<text text-anchor="middle" x="1132" y="-874.8" font-family="Arial" font-size="14.00" fill="#c6c5fe">src/components/Dashboard/Admin/All Buyer/AllBuyer.js</text>
</g>
<!-- src/App.jsx&#45;&gt;src/components/Dashboard/Admin/All Buyer/AllBuyer.js -->
<g id="edge5" class="edge">
<title>src/App.jsx&#45;&gt;src/components/Dashboard/Admin/All Buyer/AllBuyer.js</title>
<path fill="none" stroke="#757575" d="M713.66,-732.44C760.73,-751.54 856.51,-789.76 939,-818.5 985.98,-834.87 1040.12,-851.59 1078.91,-863.22"/>
<polygon fill="#757575" stroke="#757575" points="1077.89,-866.56 1088.47,-866.07 1079.89,-859.86 1077.89,-866.56"/>
</g>
<!-- src/components/Dashboard/Admin/All Seller/AllSeller.js -->
<g id="node9" class="node">
<title>src/components/Dashboard/Admin/All Seller/AllSeller.js</title>
<path fill="none" stroke="#c6c5fe" d="M1298.83,-810C1298.83,-810 965.17,-810 965.17,-810 961.33,-810 957.5,-806.17 957.5,-802.33 957.5,-802.33 957.5,-794.67 957.5,-794.67 957.5,-790.83 961.33,-787 965.17,-787 965.17,-787 1298.83,-787 1298.83,-787 1302.67,-787 1306.5,-790.83 1306.5,-794.67 1306.5,-794.67 1306.5,-802.33 1306.5,-802.33 1306.5,-806.17 1302.67,-810 1298.83,-810"/>
<text text-anchor="middle" x="1132" y="-794.8" font-family="Arial" font-size="14.00" fill="#c6c5fe">src/components/Dashboard/Admin/All Seller/AllSeller.js</text>
</g>
<!-- src/App.jsx&#45;&gt;src/components/Dashboard/Admin/All Seller/AllSeller.js -->
<g id="edge6" class="edge">
<title>src/App.jsx&#45;&gt;src/components/Dashboard/Admin/All Seller/AllSeller.js</title>
<path fill="none" stroke="#757575" d="M725.31,-727.63C799.03,-740.51 955.62,-767.86 1051.24,-784.57"/>
<polygon fill="#757575" stroke="#757575" points="1050.36,-787.97 1060.82,-786.24 1051.57,-781.07 1050.36,-787.97"/>
</g>
<!-- src/components/Dashboard/Buyer/My Orders/MyOrders.js -->
<g id="node10" class="node">
<title>src/components/Dashboard/Buyer/My Orders/MyOrders.js</title>
<path fill="none" stroke="#c6c5fe" d="M1308.33,-452C1308.33,-452 955.67,-452 955.67,-452 951.83,-452 948,-448.17 948,-444.33 948,-444.33 948,-436.67 948,-436.67 948,-432.83 951.83,-429 955.67,-429 955.67,-429 1308.33,-429 1308.33,-429 1312.17,-429 1316,-432.83 1316,-436.67 1316,-436.67 1316,-444.33 1316,-444.33 1316,-448.17 1312.17,-452 1308.33,-452"/>
<text text-anchor="middle" x="1132" y="-436.8" font-family="Arial" font-size="14.00" fill="#c6c5fe">src/components/Dashboard/Buyer/My Orders/MyOrders.js</text>
</g>
<!-- src/App.jsx&#45;&gt;src/components/Dashboard/Buyer/My Orders/MyOrders.js -->
<g id="edge7" class="edge">
<title>src/App.jsx&#45;&gt;src/components/Dashboard/Buyer/My Orders/MyOrders.js</title>
<path fill="none" stroke="#757575" d="M696.82,-708.67C732.08,-675.29 837.44,-578.93 939,-519.5 985.35,-492.38 1042.79,-470.07 1082.7,-456.15"/>
<polygon fill="#757575" stroke="#757575" points="1083.72,-459.5 1092.04,-452.95 1081.44,-452.88 1083.72,-459.5"/>
</g>
<!-- src/components/Dashboard/Dashboard.js -->
<g id="node11" class="node">
<title>src/components/Dashboard/Dashboard.js</title>
<path fill="none" stroke="#c6c5fe" d="M2119.33,-750C2119.33,-750 1868.67,-750 1868.67,-750 1864.83,-750 1861,-746.17 1861,-742.33 1861,-742.33 1861,-734.67 1861,-734.67 1861,-730.83 1864.83,-727 1868.67,-727 1868.67,-727 2119.33,-727 2119.33,-727 2123.17,-727 2127,-730.83 2127,-734.67 2127,-734.67 2127,-742.33 2127,-742.33 2127,-746.17 2123.17,-750 2119.33,-750"/>
<text text-anchor="middle" x="1994" y="-734.8" font-family="Arial" font-size="14.00" fill="#c6c5fe">src/components/Dashboard/Dashboard.js</text>
</g>
<!-- src/App.jsx&#45;&gt;src/components/Dashboard/Dashboard.js -->
<g id="edge8" class="edge">
<title>src/App.jsx&#45;&gt;src/components/Dashboard/Dashboard.js</title>
<path fill="none" stroke="#757575" d="M725.49,-721.17C775.79,-722 863.66,-723.41 939,-724.5 1264.5,-729.22 1646.56,-734.14 1849.41,-736.7"/>
<polygon fill="#757575" stroke="#757575" points="1849.16,-740.2 1859.21,-736.83 1849.25,-733.2 1849.16,-740.2"/>
</g>
<!-- src/components/Dashboard/Seller/Add Product/AddProduct.js -->
<g id="node12" class="node">
<title>src/components/Dashboard/Seller/Add Product/AddProduct.js</title>
<path fill="none" stroke="#c6c5fe" d="M1317.33,-991C1317.33,-991 946.67,-991 946.67,-991 942.83,-991 939,-987.17 939,-983.33 939,-983.33 939,-975.67 939,-975.67 939,-971.83 942.83,-968 946.67,-968 946.67,-968 1317.33,-968 1317.33,-968 1321.17,-968 1325,-971.83 1325,-975.67 1325,-975.67 1325,-983.33 1325,-983.33 1325,-987.17 1321.17,-991 1317.33,-991"/>
<text text-anchor="middle" x="1132" y="-975.8" font-family="Arial" font-size="14.00" fill="#c6c5fe">src/components/Dashboard/Seller/Add Product/AddProduct.js</text>
</g>
<!-- src/App.jsx&#45;&gt;src/components/Dashboard/Seller/Add Product/AddProduct.js -->
<g id="edge9" class="edge">
<title>src/App.jsx&#45;&gt;src/components/Dashboard/Seller/Add Product/AddProduct.js</title>
<path fill="none" stroke="#757575" d="M725.25,-730.43C773.21,-743.97 852.68,-772.47 903,-822.5 929.5,-848.85 912.01,-872.65 939,-898.5 973.82,-931.85 1024.43,-952.43 1064.94,-964.5"/>
<polygon fill="#757575" stroke="#757575" points="1063.78,-967.81 1074.36,-967.19 1065.71,-961.07 1063.78,-967.81"/>
</g>
<!-- src/components/Dashboard/Seller/My Buyers/MyBuyers.js -->
<g id="node13" class="node">
<title>src/components/Dashboard/Seller/My Buyers/MyBuyers.js</title>
<path fill="none" stroke="#c6c5fe" d="M1307.83,-141C1307.83,-141 956.17,-141 956.17,-141 952.33,-141 948.5,-137.17 948.5,-133.33 948.5,-133.33 948.5,-125.67 948.5,-125.67 948.5,-121.83 952.33,-118 956.17,-118 956.17,-118 1307.83,-118 1307.83,-118 1311.67,-118 1315.5,-121.83 1315.5,-125.67 1315.5,-125.67 1315.5,-133.33 1315.5,-133.33 1315.5,-137.17 1311.67,-141 1307.83,-141"/>
<text text-anchor="middle" x="1132" y="-125.8" font-family="Arial" font-size="14.00" fill="#c6c5fe">src/components/Dashboard/Seller/My Buyers/MyBuyers.js</text>
</g>
<!-- src/App.jsx&#45;&gt;src/components/Dashboard/Seller/My Buyers/MyBuyers.js -->
<g id="edge10" class="edge">
<title>src/App.jsx&#45;&gt;src/components/Dashboard/Seller/My Buyers/MyBuyers.js</title>
<path fill="none" stroke="#757575" d="M686.31,-708.82C696.9,-644.66 756.71,-332.49 939,-180.5 959.4,-163.49 984.89,-152.1 1010.58,-144.49"/>
<polygon fill="#757575" stroke="#757575" points="1011.41,-147.89 1020.12,-141.86 1009.55,-141.14 1011.41,-147.89"/>
</g>
<!-- src/components/Dashboard/Seller/My Products/MyProducts.js -->
<g id="node14" class="node">
<title>src/components/Dashboard/Seller/My Products/MyProducts.js</title>
<path fill="none" stroke="#c6c5fe" d="M1746.33,-711C1746.33,-711 1372.67,-711 1372.67,-711 1368.83,-711 1365,-707.17 1365,-703.33 1365,-703.33 1365,-695.67 1365,-695.67 1365,-691.83 1368.83,-688 1372.67,-688 1372.67,-688 1746.33,-688 1746.33,-688 1750.17,-688 1754,-691.83 1754,-695.67 1754,-695.67 1754,-703.33 1754,-703.33 1754,-707.17 1750.17,-711 1746.33,-711"/>
<text text-anchor="middle" x="1559.5" y="-695.8" font-family="Arial" font-size="14.00" fill="#c6c5fe">src/components/Dashboard/Seller/My Products/MyProducts.js</text>
</g>
<!-- src/App.jsx&#45;&gt;src/components/Dashboard/Seller/My Products/MyProducts.js -->
<g id="edge11" class="edge">
<title>src/App.jsx&#45;&gt;src/components/Dashboard/Seller/My Products/MyProducts.js</title>
<path fill="none" stroke="#757575" d="M725.48,-719.52C835.67,-716.87 1144.06,-709.46 1353.07,-704.44"/>
<polygon fill="#757575" stroke="#757575" points="1353.08,-707.94 1362.99,-704.2 1352.91,-700.94 1353.08,-707.94"/>
</g>
<!-- src/components/ErrorPage.js -->
<g id="node15" class="node">
<title>src/components/ErrorPage.js</title>
<path fill="none" stroke="#c6c5fe" d="M1219.83,-39C1219.83,-39 1044.17,-39 1044.17,-39 1040.33,-39 1036.5,-35.17 1036.5,-31.33 1036.5,-31.33 1036.5,-23.67 1036.5,-23.67 1036.5,-19.83 1040.33,-16 1044.17,-16 1044.17,-16 1219.83,-16 1219.83,-16 1223.67,-16 1227.5,-19.83 1227.5,-23.67 1227.5,-23.67 1227.5,-31.33 1227.5,-31.33 1227.5,-35.17 1223.67,-39 1219.83,-39"/>
<text text-anchor="middle" x="1132" y="-23.8" font-family="Arial" font-size="14.00" fill="#c6c5fe">src/components/ErrorPage.js</text>
</g>
<!-- src/App.jsx&#45;&gt;src/components/ErrorPage.js -->
<g id="edge12" class="edge">
<title>src/App.jsx&#45;&gt;src/components/ErrorPage.js</title>
<path fill="none" stroke="#757575" d="M686.07,-708.65C695.65,-640.61 752.34,-296.12 939,-108.5 972.42,-74.9 1021.91,-54.48 1062.27,-42.55"/>
<polygon fill="#757575" stroke="#757575" points="1063,-45.98 1071.67,-39.89 1061.09,-39.24 1063,-45.98"/>
</g>
<!-- src/components/Home/Home.js -->
<g id="node16" class="node">
<title>src/components/Home/Home.js</title>
<path fill="none" stroke="#c6c5fe" d="M1227.83,-310C1227.83,-310 1036.17,-310 1036.17,-310 1032.33,-310 1028.5,-306.17 1028.5,-302.33 1028.5,-302.33 1028.5,-294.67 1028.5,-294.67 1028.5,-290.83 1032.33,-287 1036.17,-287 1036.17,-287 1227.83,-287 1227.83,-287 1231.67,-287 1235.5,-290.83 1235.5,-294.67 1235.5,-294.67 1235.5,-302.33 1235.5,-302.33 1235.5,-306.17 1231.67,-310 1227.83,-310"/>
<text text-anchor="middle" x="1132" y="-294.8" font-family="Arial" font-size="14.00" fill="#c6c5fe">src/components/Home/Home.js</text>
</g>
<!-- src/App.jsx&#45;&gt;src/components/Home/Home.js -->
<g id="edge13" class="edge">
<title>src/App.jsx&#45;&gt;src/components/Home/Home.js</title>
<path fill="none" stroke="#757575" d="M692.42,-708.75C721.51,-666.14 826.67,-517.15 939,-419.5 989.36,-375.72 1057.12,-336.91 1097.22,-315.65"/>
<polygon fill="#757575" stroke="#757575" points="1098.7,-318.83 1105.93,-311.09 1095.45,-312.63 1098.7,-318.83"/>
</g>
<!-- src/private/PrivateRoute.js -->
<g id="node17" class="node">
<title>src/private/PrivateRoute.js</title>
<path fill="none" stroke="#c6c5fe" d="M2073.33,-1231C2073.33,-1231 1914.67,-1231 1914.67,-1231 1910.83,-1231 1907,-1227.17 1907,-1223.33 1907,-1223.33 1907,-1215.67 1907,-1215.67 1907,-1211.83 1910.83,-1208 1914.67,-1208 1914.67,-1208 2073.33,-1208 2073.33,-1208 2077.17,-1208 2081,-1211.83 2081,-1215.67 2081,-1215.67 2081,-1223.33 2081,-1223.33 2081,-1227.17 2077.17,-1231 2073.33,-1231"/>
<text text-anchor="middle" x="1994" y="-1215.8" font-family="Arial" font-size="14.00" fill="#c6c5fe">src/private/PrivateRoute.js</text>
</g>
<!-- src/App.jsx&#45;&gt;src/private/PrivateRoute.js -->
<g id="edge14" class="edge">
<title>src/App.jsx&#45;&gt;src/private/PrivateRoute.js</title>
<path fill="none" stroke="#757575" d="M725.24,-727.13C775.93,-737.7 860.91,-763.56 903,-822.5 946.89,-883.97 885.15,-1107.53 939,-1160.5 1006.27,-1226.68 1647.52,-1224.56 1895.64,-1221.2"/>
<polygon fill="#757575" stroke="#757575" points="1895.33,-1224.71 1905.28,-1221.07 1895.24,-1217.71 1895.33,-1224.71"/>
</g>
<!-- src/screens/DashboardScreen.js -->
<g id="node18" class="node">
<title>src/screens/DashboardScreen.js</title>
<path fill="none" stroke="#c6c5fe" d="M1230.33,-552C1230.33,-552 1033.67,-552 1033.67,-552 1029.83,-552 1026,-548.17 1026,-544.33 1026,-544.33 1026,-536.67 1026,-536.67 1026,-532.83 1029.83,-529 1033.67,-529 1033.67,-529 1230.33,-529 1230.33,-529 1234.17,-529 1238,-532.83 1238,-536.67 1238,-536.67 1238,-544.33 1238,-544.33 1238,-548.17 1234.17,-552 1230.33,-552"/>
<text text-anchor="middle" x="1132" y="-536.8" font-family="Arial" font-size="14.00" fill="#c6c5fe">src/screens/DashboardScreen.js</text>
</g>
<!-- src/App.jsx&#45;&gt;src/screens/DashboardScreen.js -->
<g id="edge15" class="edge">
<title>src/App.jsx&#45;&gt;src/screens/DashboardScreen.js</title>
<path fill="none" stroke="#757575" d="M706.46,-708.55C749.92,-685.22 850.38,-632.89 939,-598.5 983.17,-581.36 1034.63,-566.05 1073.15,-555.47"/>
<polygon fill="#757575" stroke="#757575" points="1073.96,-558.88 1082.7,-552.88 1072.13,-552.13 1073.96,-558.88"/>
</g>
<!-- src/screens/MainScreen.js -->
<g id="node19" class="node">
<title>src/screens/MainScreen.js</title>
<path fill="none" stroke="#c6c5fe" d="M1212.33,-213C1212.33,-213 1051.67,-213 1051.67,-213 1047.83,-213 1044,-209.17 1044,-205.33 1044,-205.33 1044,-197.67 1044,-197.67 1044,-193.83 1047.83,-190 1051.67,-190 1051.67,-190 1212.33,-190 1212.33,-190 1216.17,-190 1220,-193.83 1220,-197.67 1220,-197.67 1220,-205.33 1220,-205.33 1220,-209.17 1216.17,-213 1212.33,-213"/>
<text text-anchor="middle" x="1132" y="-197.8" font-family="Arial" font-size="14.00" fill="#c6c5fe">src/screens/MainScreen.js</text>
</g>
<!-- src/App.jsx&#45;&gt;src/screens/MainScreen.js -->
<g id="edge16" class="edge">
<title>src/App.jsx&#45;&gt;src/screens/MainScreen.js</title>
<path fill="none" stroke="#757575" d="M688.03,-708.71C705.48,-652.41 787.73,-408.35 939,-277.5 974.19,-247.06 1023.06,-227.95 1062.68,-216.51"/>
<polygon fill="#757575" stroke="#757575" points="1063.43,-219.93 1072.13,-213.88 1061.56,-213.18 1063.43,-219.93"/>
</g>
<!-- src/components/Authentication/Login.css -->
<g id="node27" class="node">
<title>src/components/Authentication/Login.css</title>
<path fill="none" stroke="#cfffac" d="M1683.33,-1151C1683.33,-1151 1435.67,-1151 1435.67,-1151 1431.83,-1151 1428,-1147.17 1428,-1143.33 1428,-1143.33 1428,-1135.67 1428,-1135.67 1428,-1131.83 1431.83,-1128 1435.67,-1128 1435.67,-1128 1683.33,-1128 1683.33,-1128 1687.17,-1128 1691,-1131.83 1691,-1135.67 1691,-1135.67 1691,-1143.33 1691,-1143.33 1691,-1147.17 1687.17,-1151 1683.33,-1151"/>
<text text-anchor="middle" x="1559.5" y="-1135.8" font-family="Arial" font-size="14.00" fill="#cfffac">src/components/Authentication/Login.css</text>
</g>
<!-- src/components/Authentication/Login.js&#45;&gt;src/components/Authentication/Login.css -->
<g id="edge20" class="edge">
<title>src/components/Authentication/Login.js&#45;&gt;src/components/Authentication/Login.css</title>
<path fill="none" stroke="#757575" d="M1258.36,-1139.5C1307.93,-1139.5 1365.16,-1139.5 1416.27,-1139.5"/>
<polygon fill="#757575" stroke="#757575" points="1416.24,-1143 1426.24,-1139.5 1416.24,-1136 1416.24,-1143"/>
</g>
<!-- src/contexts/UserContext.js -->
<g id="node28" class="node">
<title>src/contexts/UserContext.js</title>
<path fill="none" stroke="#c6c5fe" d="M2472.83,-790C2472.83,-790 2307.17,-790 2307.17,-790 2303.33,-790 2299.5,-786.17 2299.5,-782.33 2299.5,-782.33 2299.5,-774.67 2299.5,-774.67 2299.5,-770.83 2303.33,-767 2307.17,-767 2307.17,-767 2472.83,-767 2472.83,-767 2476.67,-767 2480.5,-770.83 2480.5,-774.67 2480.5,-774.67 2480.5,-782.33 2480.5,-782.33 2480.5,-786.17 2476.67,-790 2472.83,-790"/>
<text text-anchor="middle" x="2390" y="-774.8" font-family="Arial" font-size="14.00" fill="#c6c5fe">src/contexts/UserContext.js</text>
</g>
<!-- src/components/Authentication/Login.js&#45;&gt;src/contexts/UserContext.js -->
<g id="edge21" class="edge">
<title>src/components/Authentication/Login.js&#45;&gt;src/contexts/UserContext.js</title>
<path fill="none" stroke="#757575" d="M1188.16,-1151.47C1356.3,-1184.68 1870.63,-1261.62 2194,-1040.5 2288.21,-976.08 2354.82,-851 2378.99,-800.47"/>
<polygon fill="#757575" stroke="#757575" points="2382.02,-802.25 2383.1,-791.71 2375.68,-799.28 2382.02,-802.25"/>
</g>
<!-- src/components/Authentication/Register.js&#45;&gt;src/contexts/UserContext.js -->
<g id="edge23" class="edge">
<title>src/components/Authentication/Register.js&#45;&gt;src/contexts/UserContext.js</title>
<path fill="none" stroke="#757575" d="M1199.33,-1071.48C1374.9,-1099.66 1861.1,-1154.45 2194,-967.5 2273.04,-923.12 2343.34,-838.79 2373.45,-799.56"/>
<polygon fill="#757575" stroke="#757575" points="2376.23,-801.69 2379.47,-791.6 2370.65,-797.47 2376.23,-801.69"/>
</g>
<!-- src/components/Authentication/Register.css -->
<g id="node29" class="node">
<title>src/components/Authentication/Register.css</title>
<path fill="none" stroke="#cfffac" d="M1691.83,-1071C1691.83,-1071 1427.17,-1071 1427.17,-1071 1423.33,-1071 1419.5,-1067.17 1419.5,-1063.33 1419.5,-1063.33 1419.5,-1055.67 1419.5,-1055.67 1419.5,-1051.83 1423.33,-1048 1427.17,-1048 1427.17,-1048 1691.83,-1048 1691.83,-1048 1695.67,-1048 1699.5,-1051.83 1699.5,-1055.67 1699.5,-1055.67 1699.5,-1063.33 1699.5,-1063.33 1699.5,-1067.17 1695.67,-1071 1691.83,-1071"/>
<text text-anchor="middle" x="1559.5" y="-1055.8" font-family="Arial" font-size="14.00" fill="#cfffac">src/components/Authentication/Register.css</text>
</g>
<!-- src/components/Authentication/Register.js&#45;&gt;src/components/Authentication/Register.css -->
<g id="edge22" class="edge">
<title>src/components/Authentication/Register.js&#45;&gt;src/components/Authentication/Register.css</title>
<path fill="none" stroke="#757575" d="M1266.76,-1059.5C1311.55,-1059.5 1361.79,-1059.5 1407.79,-1059.5"/>
<polygon fill="#757575" stroke="#757575" points="1407.56,-1063 1417.56,-1059.5 1407.56,-1056 1407.56,-1063"/>
</g>
<!-- src/components/Layout/Product/Product.js -->
<g id="node26" class="node">
<title>src/components/Layout/Product/Product.js</title>
<path fill="none" stroke="#c6c5fe" d="M2121.83,-551C2121.83,-551 1866.17,-551 1866.17,-551 1862.33,-551 1858.5,-547.17 1858.5,-543.33 1858.5,-543.33 1858.5,-535.67 1858.5,-535.67 1858.5,-531.83 1862.33,-528 1866.17,-528 1866.17,-528 2121.83,-528 2121.83,-528 2125.67,-528 2129.5,-531.83 2129.5,-535.67 2129.5,-535.67 2129.5,-543.33 2129.5,-543.33 2129.5,-547.17 2125.67,-551 2121.83,-551"/>
<text text-anchor="middle" x="1994" y="-535.8" font-family="Arial" font-size="14.00" fill="#c6c5fe">src/components/Layout/Product/Product.js</text>
</g>
<!-- src/components/Category/Category.js&#45;&gt;src/components/Layout/Product/Product.js -->
<g id="edge27" class="edge">
<title>src/components/Category/Category.js&#45;&gt;src/components/Layout/Product/Product.js</title>
<path fill="none" stroke="#757575" d="M1253.48,-608.29C1410.97,-593.64 1686.28,-568.03 1852.9,-552.53"/>
<polygon fill="#757575" stroke="#757575" points="1853.07,-556.03 1862.71,-551.62 1852.42,-549.06 1853.07,-556.03"/>
</g>
<!-- src/components/Category/Category.js&#45;&gt;src/contexts/UserContext.js -->
<g id="edge28" class="edge">
<title>src/components/Category/Category.js&#45;&gt;src/contexts/UserContext.js</title>
<path fill="none" stroke="#757575" d="M1247.11,-631.48C1283.46,-634.77 1323.88,-637.88 1361,-639.5 1537.28,-647.22 1581.62,-644.4 1758,-639.5 1774.02,-639.06 1777.98,-637.94 1794,-637.5 1971.71,-632.57 2024.86,-582.76 2194,-637.5 2268.43,-661.59 2338.31,-725.89 2370.47,-758.67"/>
<polygon fill="#757575" stroke="#757575" points="2367.66,-760.8 2377.12,-765.57 2372.7,-755.94 2367.66,-760.8"/>
</g>
<!-- src/components/Categories/Categories.js -->
<g id="node33" class="node">
<title>src/components/Categories/Categories.js</title>
<path fill="none" stroke="#cfffac" d="M1683.83,-351C1683.83,-351 1435.17,-351 1435.17,-351 1431.33,-351 1427.5,-347.17 1427.5,-343.33 1427.5,-343.33 1427.5,-335.67 1427.5,-335.67 1427.5,-331.83 1431.33,-328 1435.17,-328 1435.17,-328 1683.83,-328 1683.83,-328 1687.67,-328 1691.5,-331.83 1691.5,-335.67 1691.5,-335.67 1691.5,-343.33 1691.5,-343.33 1691.5,-347.17 1687.67,-351 1683.83,-351"/>
<text text-anchor="middle" x="1559.5" y="-335.8" font-family="Arial" font-size="14.00" fill="#cfffac">src/components/Categories/Categories.js</text>
</g>
<!-- src/components/Category/Category.js&#45;&gt;src/components/Categories/Categories.js -->
<g id="edge25" class="edge">
<title>src/components/Category/Category.js&#45;&gt;src/components/Categories/Categories.js</title>
<path fill="none" stroke="#757575" d="M1241.99,-607.52C1272.78,-598.97 1303.67,-584.58 1325,-560.5 1385.18,-492.57 1294.43,-421.18 1361,-359.5 1392.25,-330.55 1439.35,-324.89 1479.73,-326.78"/>
<polygon fill="#757575" stroke="#757575" points="1479.47,-330.28 1489.68,-327.43 1479.93,-323.29 1479.47,-330.28"/>
</g>
<!-- src/components/Category/Category.css -->
<g id="node34" class="node">
<title>src/components/Category/Category.css</title>
<path fill="none" stroke="#cfffac" d="M1678.33,-631C1678.33,-631 1440.67,-631 1440.67,-631 1436.83,-631 1433,-627.17 1433,-623.33 1433,-623.33 1433,-615.67 1433,-615.67 1433,-611.83 1436.83,-608 1440.67,-608 1440.67,-608 1678.33,-608 1678.33,-608 1682.17,-608 1686,-611.83 1686,-615.67 1686,-615.67 1686,-623.33 1686,-623.33 1686,-627.17 1682.17,-631 1678.33,-631"/>
<text text-anchor="middle" x="1559.5" y="-615.8" font-family="Arial" font-size="14.00" fill="#cfffac">src/components/Category/Category.css</text>
</g>
<!-- src/components/Category/Category.js&#45;&gt;src/components/Category/Category.css -->
<g id="edge26" class="edge">
<title>src/components/Category/Category.js&#45;&gt;src/components/Category/Category.css</title>
<path fill="none" stroke="#757575" d="M1253.23,-619.5C1305.54,-619.5 1367.11,-619.5 1421.21,-619.5"/>
<polygon fill="#757575" stroke="#757575" points="1421.13,-623 1431.13,-619.5 1421.13,-616 1421.13,-623"/>
</g>
<!-- src/components/Dashboard/Admin/All Buyer/AllBuyer.js&#45;&gt;src/contexts/UserContext.js -->
<g id="edge31" class="edge">
<title>src/components/Dashboard/Admin/All Buyer/AllBuyer.js&#45;&gt;src/contexts/UserContext.js</title>
<path fill="none" stroke="#757575" d="M1307.41,-888.67C1564.22,-901.95 2031.25,-919.15 2194,-879.5 2259.69,-863.5 2327.94,-821.2 2363.68,-796.72"/>
<polygon fill="#757575" stroke="#757575" points="2365.42,-799.77 2371.63,-791.19 2361.42,-794.03 2365.42,-799.77"/>
</g>
<!-- src/components/Dashboard/Admin/All Buyer/AllBuyer.css -->
<g id="node35" class="node">
<title>src/components/Dashboard/Admin/All Buyer/AllBuyer.css</title>
<path fill="none" stroke="#cfffac" d="M1732.33,-950C1732.33,-950 1386.67,-950 1386.67,-950 1382.83,-950 1379,-946.17 1379,-942.33 1379,-942.33 1379,-934.67 1379,-934.67 1379,-930.83 1382.83,-927 1386.67,-927 1386.67,-927 1732.33,-927 1732.33,-927 1736.17,-927 1740,-930.83 1740,-934.67 1740,-934.67 1740,-942.33 1740,-942.33 1740,-946.17 1736.17,-950 1732.33,-950"/>
<text text-anchor="middle" x="1559.5" y="-934.8" font-family="Arial" font-size="14.00" fill="#cfffac">src/components/Dashboard/Admin/All Buyer/AllBuyer.css</text>
</g>
<!-- src/components/Dashboard/Admin/All Buyer/AllBuyer.js&#45;&gt;src/components/Dashboard/Admin/All Buyer/AllBuyer.css -->
<g id="edge29" class="edge">
<title>src/components/Dashboard/Admin/All Buyer/AllBuyer.js&#45;&gt;src/components/Dashboard/Admin/All Buyer/AllBuyer.css</title>
<path fill="none" stroke="#757575" d="M1211.04,-890.48C1255.05,-897.14 1311.06,-905.49 1361,-912.5 1391.06,-916.72 1423.73,-921.1 1453.69,-925.04"/>
<polygon fill="#757575" stroke="#757575" points="1453.15,-928.5 1463.52,-926.33 1454.06,-921.56 1453.15,-928.5"/>
</g>
<!-- src/components/Layout/UserTable/UserTable.js -->
<g id="node36" class="node">
<title>src/components/Layout/UserTable/UserTable.js</title>
<path fill="none" stroke="#c6c5fe" d="M1701.33,-870C1701.33,-870 1417.67,-870 1417.67,-870 1413.83,-870 1410,-866.17 1410,-862.33 1410,-862.33 1410,-854.67 1410,-854.67 1410,-850.83 1413.83,-847 1417.67,-847 1417.67,-847 1701.33,-847 1701.33,-847 1705.17,-847 1709,-850.83 1709,-854.67 1709,-854.67 1709,-862.33 1709,-862.33 1709,-866.17 1705.17,-870 1701.33,-870"/>
<text text-anchor="middle" x="1559.5" y="-854.8" font-family="Arial" font-size="14.00" fill="#c6c5fe">src/components/Layout/UserTable/UserTable.js</text>
</g>
<!-- src/components/Dashboard/Admin/All Buyer/AllBuyer.js&#45;&gt;src/components/Layout/UserTable/UserTable.js -->
<g id="edge30" class="edge">
<title>src/components/Dashboard/Admin/All Buyer/AllBuyer.js&#45;&gt;src/components/Layout/UserTable/UserTable.js</title>
<path fill="none" stroke="#757575" d="M1307.29,-870.31C1337.41,-868.89 1368.6,-867.43 1398.32,-866.03"/>
<polygon fill="#757575" stroke="#757575" points="1398.3,-869.53 1408.12,-865.57 1397.97,-862.54 1398.3,-869.53"/>
</g>
<!-- src/components/Dashboard/Admin/All Seller/AllSeller.js&#45;&gt;src/contexts/UserContext.js -->
<g id="edge34" class="edge">
<title>src/components/Dashboard/Admin/All Seller/AllSeller.js&#45;&gt;src/contexts/UserContext.js</title>
<path fill="none" stroke="#757575" d="M1306.98,-795.73C1573.47,-791.49 2074.27,-783.51 2288.08,-780.11"/>
<polygon fill="#757575" stroke="#757575" points="2287.82,-783.61 2297.77,-779.95 2287.71,-776.61 2287.82,-783.61"/>
</g>
<!-- src/components/Dashboard/Admin/All Seller/AllSeller.js&#45;&gt;src/components/Layout/UserTable/UserTable.js -->
<g id="edge33" class="edge">
<title>src/components/Dashboard/Admin/All Seller/AllSeller.js&#45;&gt;src/components/Layout/UserTable/UserTable.js</title>
<path fill="none" stroke="#757575" d="M1196.22,-810.42C1241.89,-818.77 1305.11,-829.76 1361,-837.5 1381.05,-840.28 1402.29,-842.89 1423.12,-845.26"/>
<polygon fill="#757575" stroke="#757575" points="1422.47,-848.7 1432.79,-846.34 1423.25,-841.75 1422.47,-848.7"/>
</g>
<!-- src/components/Dashboard/Admin/All Seller/AllSeller.css -->
<g id="node37" class="node">
<title>src/components/Dashboard/Admin/All Seller/AllSeller.css</title>
<path fill="none" stroke="#cfffac" d="M1731.33,-829C1731.33,-829 1387.67,-829 1387.67,-829 1383.83,-829 1380,-825.17 1380,-821.33 1380,-821.33 1380,-813.67 1380,-813.67 1380,-809.83 1383.83,-806 1387.67,-806 1387.67,-806 1731.33,-806 1731.33,-806 1735.17,-806 1739,-809.83 1739,-813.67 1739,-813.67 1739,-821.33 1739,-821.33 1739,-825.17 1735.17,-829 1731.33,-829"/>
<text text-anchor="middle" x="1559.5" y="-813.8" font-family="Arial" font-size="14.00" fill="#cfffac">src/components/Dashboard/Admin/All Seller/AllSeller.css</text>
</g>
<!-- src/components/Dashboard/Admin/All Seller/AllSeller.js&#45;&gt;src/components/Dashboard/Admin/All Seller/AllSeller.css -->
<g id="edge32" class="edge">
<title>src/components/Dashboard/Admin/All Seller/AllSeller.js&#45;&gt;src/components/Dashboard/Admin/All Seller/AllSeller.css</title>
<path fill="none" stroke="#757575" d="M1306.99,-806.27C1327.24,-807.17 1347.97,-808.1 1368.42,-809.01"/>
<polygon fill="#757575" stroke="#757575" points="1368.09,-812.5 1378.24,-809.45 1368.4,-805.51 1368.09,-812.5"/>
</g>
<!-- src/components/Dashboard/Buyer/My Orders/MyOrders.js&#45;&gt;src/components/Layout/Product/Product.js -->
<g id="edge37" class="edge">
<title>src/components/Dashboard/Buyer/My Orders/MyOrders.js&#45;&gt;src/components/Layout/Product/Product.js</title>
<path fill="none" stroke="#757575" d="M1228.69,-428.51C1352.35,-415.7 1573.67,-401.91 1758,-439.5 1835.66,-455.34 1919.45,-497.82 1962.94,-522.01"/>
<polygon fill="#757575" stroke="#757575" points="1961.1,-524.99 1971.53,-526.85 1964.54,-518.89 1961.1,-524.99"/>
</g>
<!-- src/components/Dashboard/Buyer/My Orders/MyOrders.css -->
<g id="node40" class="node">
<title>src/components/Dashboard/Buyer/My Orders/MyOrders.css</title>
<path fill="none" stroke="#cfffac" d="M1740.83,-472C1740.83,-472 1378.17,-472 1378.17,-472 1374.33,-472 1370.5,-468.17 1370.5,-464.33 1370.5,-464.33 1370.5,-456.67 1370.5,-456.67 1370.5,-452.83 1374.33,-449 1378.17,-449 1378.17,-449 1740.83,-449 1740.83,-449 1744.67,-449 1748.5,-452.83 1748.5,-456.67 1748.5,-456.67 1748.5,-464.33 1748.5,-464.33 1748.5,-468.17 1744.67,-472 1740.83,-472"/>
<text text-anchor="middle" x="1559.5" y="-456.8" font-family="Arial" font-size="14.00" fill="#cfffac">src/components/Dashboard/Buyer/My Orders/MyOrders.css</text>
</g>
<!-- src/components/Dashboard/Buyer/My Orders/MyOrders.js&#45;&gt;src/components/Dashboard/Buyer/My Orders/MyOrders.css -->
<g id="edge36" class="edge">
<title>src/components/Dashboard/Buyer/My Orders/MyOrders.js&#45;&gt;src/components/Dashboard/Buyer/My Orders/MyOrders.css</title>
<path fill="none" stroke="#757575" d="M1316.23,-449.11C1330.35,-449.78 1344.64,-450.45 1358.86,-451.12"/>
<polygon fill="#757575" stroke="#757575" points="1358.58,-454.61 1368.73,-451.58 1358.91,-447.61 1358.58,-454.61"/>
</g>
<!-- src/components/Layout/ProductTable/ProductTable.js -->
<g id="node41" class="node">
<title>src/components/Layout/ProductTable/ProductTable.js</title>
<path fill="none" stroke="#c6c5fe" d="M1719.33,-392C1719.33,-392 1399.67,-392 1399.67,-392 1395.83,-392 1392,-388.17 1392,-384.33 1392,-384.33 1392,-376.67 1392,-376.67 1392,-372.83 1395.83,-369 1399.67,-369 1399.67,-369 1719.33,-369 1719.33,-369 1723.17,-369 1727,-372.83 1727,-376.67 1727,-376.67 1727,-384.33 1727,-384.33 1727,-388.17 1723.17,-392 1719.33,-392"/>
<text text-anchor="middle" x="1559.5" y="-376.8" font-family="Arial" font-size="14.00" fill="#c6c5fe">src/components/Layout/ProductTable/ProductTable.js</text>
</g>
<!-- src/components/Dashboard/Buyer/My Orders/MyOrders.js&#45;&gt;src/components/Layout/ProductTable/ProductTable.js -->
<g id="edge38" class="edge">
<title>src/components/Dashboard/Buyer/My Orders/MyOrders.js&#45;&gt;src/components/Layout/ProductTable/ProductTable.js</title>
<path fill="none" stroke="#757575" d="M1211.04,-428.52C1255.05,-421.86 1311.06,-413.51 1361,-406.5 1391.06,-402.28 1423.73,-397.9 1453.69,-393.96"/>
<polygon fill="#757575" stroke="#757575" points="1454.06,-397.44 1463.52,-392.67 1453.15,-390.5 1454.06,-397.44"/>
</g>
<!-- src/components/Dashboard/Dashboard.js&#45;&gt;src/contexts/UserContext.js -->
<g id="edge39" class="edge">
<title>src/components/Dashboard/Dashboard.js&#45;&gt;src/contexts/UserContext.js</title>
<path fill="none" stroke="#757575" d="M2112.95,-750.47C2168.72,-756.14 2234.62,-762.83 2288.05,-768.25"/>
<polygon fill="#757575" stroke="#757575" points="2287.45,-771.71 2297.75,-769.24 2288.15,-764.74 2287.45,-771.71"/>
</g>
<!-- src/components/Dashboard/Seller/Add Product/AddProduct.js&#45;&gt;src/contexts/UserContext.js -->
<g id="edge41" class="edge">
<title>src/components/Dashboard/Seller/Add Product/AddProduct.js&#45;&gt;src/contexts/UserContext.js</title>
<path fill="none" stroke="#757575" d="M1218.02,-991.49C1403.66,-1013.95 1855.73,-1048.17 2194,-906.5 2261.6,-878.19 2331.08,-825.93 2366,-797.74"/>
<polygon fill="#757575" stroke="#757575" points="2368.2,-800.46 2373.72,-791.42 2363.77,-795.04 2368.2,-800.46"/>
</g>
<!-- src/components/Dashboard/Seller/Add Product/AddProduct.css -->
<g id="node42" class="node">
<title>src/components/Dashboard/Seller/Add Product/AddProduct.css</title>
<path fill="none" stroke="#cfffac" d="M1750.33,-991C1750.33,-991 1368.67,-991 1368.67,-991 1364.83,-991 1361,-987.17 1361,-983.33 1361,-983.33 1361,-975.67 1361,-975.67 1361,-971.83 1364.83,-968 1368.67,-968 1368.67,-968 1750.33,-968 1750.33,-968 1754.17,-968 1758,-971.83 1758,-975.67 1758,-975.67 1758,-983.33 1758,-983.33 1758,-987.17 1754.17,-991 1750.33,-991"/>
<text text-anchor="middle" x="1559.5" y="-975.8" font-family="Arial" font-size="14.00" fill="#cfffac">src/components/Dashboard/Seller/Add Product/AddProduct.css</text>
</g>
<!-- src/components/Dashboard/Seller/Add Product/AddProduct.js&#45;&gt;src/components/Dashboard/Seller/Add Product/AddProduct.css -->
<g id="edge40" class="edge">
<title>src/components/Dashboard/Seller/Add Product/AddProduct.js&#45;&gt;src/components/Dashboard/Seller/Add Product/AddProduct.css</title>
<path fill="none" stroke="#757575" d="M1325.21,-979.5C1333.22,-979.5 1341.27,-979.5 1349.31,-979.5"/>
<polygon fill="#757575" stroke="#757575" points="1349.15,-983 1359.15,-979.5 1349.15,-976 1349.15,-983"/>
</g>
<!-- src/components/Dashboard/Seller/My Buyers/MyBuyers.css -->
<g id="node43" class="node">
<title>src/components/Dashboard/Seller/My Buyers/MyBuyers.css</title>
<path fill="none" stroke="#cfffac" d="M1740.33,-64C1740.33,-64 1378.67,-64 1378.67,-64 1374.83,-64 1371,-60.17 1371,-56.33 1371,-56.33 1371,-48.67 1371,-48.67 1371,-44.83 1374.83,-41 1378.67,-41 1378.67,-41 1740.33,-41 1740.33,-41 1744.17,-41 1748,-44.83 1748,-48.67 1748,-48.67 1748,-56.33 1748,-56.33 1748,-60.17 1744.17,-64 1740.33,-64"/>
<text text-anchor="middle" x="1559.5" y="-48.8" font-family="Arial" font-size="14.00" fill="#cfffac">src/components/Dashboard/Seller/My Buyers/MyBuyers.css</text>
</g>
<!-- src/components/Dashboard/Seller/My Buyers/MyBuyers.js&#45;&gt;src/components/Dashboard/Seller/My Buyers/MyBuyers.css -->
<g id="edge42" class="edge">
<title>src/components/Dashboard/Seller/My Buyers/MyBuyers.js&#45;&gt;src/components/Dashboard/Seller/My Buyers/MyBuyers.css</title>
<path fill="none" stroke="#757575" d="M1173.4,-117.52C1218.68,-104.54 1294.48,-84.12 1361,-72.5 1375.07,-70.04 1389.76,-67.86 1404.5,-65.92"/>
<polygon fill="#757575" stroke="#757575" points="1404.79,-69.41 1414.27,-64.68 1403.9,-62.47 1404.79,-69.41"/>
</g>
<!-- src/components/Dashboard/Seller/My Products/MyProducts.js&#45;&gt;src/components/Layout/Product/Product.js -->
<g id="edge44" class="edge">
<title>src/components/Dashboard/Seller/My Products/MyProducts.js&#45;&gt;src/components/Layout/Product/Product.js</title>
<path fill="none" stroke="#757575" d="M1604.48,-687.6C1644.8,-676.35 1705.96,-658.41 1758,-639.5 1829.95,-613.35 1911.74,-576.98 1957.37,-556.08"/>
<polygon fill="#757575" stroke="#757575" points="1958.63,-559.35 1966.25,-552 1955.7,-552.99 1958.63,-559.35"/>
</g>
<!-- src/components/Dashboard/Seller/My Products/MyProducts.js&#45;&gt;src/contexts/UserContext.js -->
<g id="edge45" class="edge">
<title>src/components/Dashboard/Seller/My Products/MyProducts.js&#45;&gt;src/contexts/UserContext.js</title>
<path fill="none" stroke="#757575" d="M1754.16,-691.32C1880.28,-689.34 2047.91,-693.05 2194,-717.5 2249.32,-726.76 2310.7,-747.85 2349.55,-762.63"/>
<polygon fill="#757575" stroke="#757575" points="2347.88,-765.74 2358.47,-766.07 2350.4,-759.21 2347.88,-765.74"/>
</g>
<!-- src/components/Dashboard/Seller/My Products/MyProducts.css -->
<g id="node44" class="node">
<title>src/components/Dashboard/Seller/My Products/MyProducts.css</title>
<path fill="none" stroke="#cfffac" d="M2186.33,-670C2186.33,-670 1801.67,-670 1801.67,-670 1797.83,-670 1794,-666.17 1794,-662.33 1794,-662.33 1794,-654.67 1794,-654.67 1794,-650.83 1797.83,-647 1801.67,-647 1801.67,-647 2186.33,-647 2186.33,-647 2190.17,-647 2194,-650.83 2194,-654.67 2194,-654.67 2194,-662.33 2194,-662.33 2194,-666.17 2190.17,-670 2186.33,-670"/>
<text text-anchor="middle" x="1994" y="-654.8" font-family="Arial" font-size="14.00" fill="#cfffac">src/components/Dashboard/Seller/My Products/MyProducts.css</text>
</g>
<!-- src/components/Dashboard/Seller/My Products/MyProducts.js&#45;&gt;src/components/Dashboard/Seller/My Products/MyProducts.css -->
<g id="edge43" class="edge">
<title>src/components/Dashboard/Seller/My Products/MyProducts.js&#45;&gt;src/components/Dashboard/Seller/My Products/MyProducts.css</title>
<path fill="none" stroke="#757575" d="M1687.05,-687.5C1739.88,-682.49 1801.4,-676.66 1855.35,-671.55"/>
<polygon fill="#757575" stroke="#757575" points="1855.61,-675.04 1865.24,-670.61 1854.95,-668.07 1855.61,-675.04"/>
</g>
<!-- src/assets/error.jpg -->
<g id="node23" class="node">
<title>src/assets/error.jpg</title>
<path fill="none" stroke="#cfffac" d="M1617.33,-23C1617.33,-23 1501.67,-23 1501.67,-23 1497.83,-23 1494,-19.17 1494,-15.33 1494,-15.33 1494,-7.67 1494,-7.67 1494,-3.83 1497.83,0 1501.67,0 1501.67,0 1617.33,0 1617.33,0 1621.17,0 1625,-3.83 1625,-7.67 1625,-7.67 1625,-15.33 1625,-15.33 1625,-19.17 1621.17,-23 1617.33,-23"/>
<text text-anchor="middle" x="1559.5" y="-7.8" font-family="Arial" font-size="14.00" fill="#cfffac">src/assets/error.jpg</text>
</g>
<!-- src/components/ErrorPage.js&#45;&gt;src/assets/error.jpg -->
<g id="edge46" class="edge">
<title>src/components/ErrorPage.js&#45;&gt;src/assets/error.jpg</title>
<path fill="none" stroke="#757575" d="M1227.96,-23.93C1304.68,-21.04 1411.25,-17.04 1482.42,-14.36"/>
<polygon fill="#757575" stroke="#757575" points="1482.16,-17.87 1492.02,-14 1481.9,-10.88 1482.16,-17.87"/>
</g>
<!-- src/components/Advertise/Advertise.js -->
<g id="node25" class="node">
<title>src/components/Advertise/Advertise.js</title>
<path fill="none" stroke="#c6c5fe" d="M1674.83,-269C1674.83,-269 1444.17,-269 1444.17,-269 1440.33,-269 1436.5,-265.17 1436.5,-261.33 1436.5,-261.33 1436.5,-253.67 1436.5,-253.67 1436.5,-249.83 1440.33,-246 1444.17,-246 1444.17,-246 1674.83,-246 1674.83,-246 1678.67,-246 1682.5,-249.83 1682.5,-253.67 1682.5,-253.67 1682.5,-261.33 1682.5,-261.33 1682.5,-265.17 1678.67,-269 1674.83,-269"/>
<text text-anchor="middle" x="1559.5" y="-253.8" font-family="Arial" font-size="14.00" fill="#c6c5fe">src/components/Advertise/Advertise.js</text>
</g>
<!-- src/components/Home/Home.js&#45;&gt;src/components/Advertise/Advertise.js -->
<g id="edge51" class="edge">
<title>src/components/Home/Home.js&#45;&gt;src/components/Advertise/Advertise.js</title>
<path fill="none" stroke="#757575" d="M1235.73,-288.6C1292.57,-283.12 1363.86,-276.25 1424.98,-270.37"/>
<polygon fill="#757575" stroke="#757575" points="1425.14,-273.87 1434.76,-269.42 1424.47,-266.9 1425.14,-273.87"/>
</g>
<!-- src/components/Home/Home.js&#45;&gt;src/components/Categories/Categories.js -->
<g id="edge52" class="edge">
<title>src/components/Home/Home.js&#45;&gt;src/components/Categories/Categories.js</title>
<path fill="none" stroke="#757575" d="M1235.73,-308.4C1291.99,-313.82 1362.41,-320.61 1423.11,-326.45"/>
<polygon fill="#757575" stroke="#757575" points="1422.53,-329.91 1432.81,-327.39 1423.2,-322.95 1422.53,-329.91"/>
</g>
<!-- src/components/Hero/Hero.js -->
<g id="node50" class="node">
<title>src/components/Hero/Hero.js</title>
<path fill="none" stroke="#c6c5fe" d="M1647.83,-187C1647.83,-187 1471.17,-187 1471.17,-187 1467.33,-187 1463.5,-183.17 1463.5,-179.33 1463.5,-179.33 1463.5,-171.67 1463.5,-171.67 1463.5,-167.83 1467.33,-164 1471.17,-164 1471.17,-164 1647.83,-164 1647.83,-164 1651.67,-164 1655.5,-167.83 1655.5,-171.67 1655.5,-171.67 1655.5,-179.33 1655.5,-179.33 1655.5,-183.17 1651.67,-187 1647.83,-187"/>
<text text-anchor="middle" x="1559.5" y="-171.8" font-family="Arial" font-size="14.00" fill="#c6c5fe">src/components/Hero/Hero.js</text>
</g>
<!-- src/components/Home/Home.js&#45;&gt;src/components/Hero/Hero.js -->
<g id="edge53" class="edge">
<title>src/components/Home/Home.js&#45;&gt;src/components/Hero/Hero.js</title>
<path fill="none" stroke="#757575" d="M1170.3,-286.58C1209.91,-273.24 1273.72,-249.74 1325,-221.5 1342.29,-211.98 1342.55,-202.51 1361,-195.5 1389.35,-184.72 1421.55,-178.99 1451.6,-176.11"/>
<polygon fill="#757575" stroke="#757575" points="1451.83,-179.61 1461.49,-175.27 1451.23,-172.63 1451.83,-179.61"/>
</g>
<!-- src/components/Home/Home.css -->
<g id="node51" class="node">
<title>src/components/Home/Home.css</title>
<path fill="none" stroke="#cfffac" d="M1660.83,-310C1660.83,-310 1458.17,-310 1458.17,-310 1454.33,-310 1450.5,-306.17 1450.5,-302.33 1450.5,-302.33 1450.5,-294.67 1450.5,-294.67 1450.5,-290.83 1454.33,-287 1458.17,-287 1458.17,-287 1660.83,-287 1660.83,-287 1664.67,-287 1668.5,-290.83 1668.5,-294.67 1668.5,-294.67 1668.5,-302.33 1668.5,-302.33 1668.5,-306.17 1664.67,-310 1660.83,-310"/>
<text text-anchor="middle" x="1559.5" y="-294.8" font-family="Arial" font-size="14.00" fill="#cfffac">src/components/Home/Home.css</text>
</g>
<!-- src/components/Home/Home.js&#45;&gt;src/components/Home/Home.css -->
<g id="edge54" class="edge">
<title>src/components/Home/Home.js&#45;&gt;src/components/Home/Home.css</title>
<path fill="none" stroke="#757575" d="M1235.73,-298.5C1296.86,-298.5 1374.72,-298.5 1438.64,-298.5"/>
<polygon fill="#757575" stroke="#757575" points="1438.49,-302 1448.49,-298.5 1438.49,-295 1438.49,-302"/>
</g>
<!-- src/private/PrivateRoute.js&#45;&gt;src/contexts/UserContext.js -->
<g id="edge68" class="edge">
<title>src/private/PrivateRoute.js&#45;&gt;src/contexts/UserContext.js</title>
<path fill="none" stroke="#757575" d="M2081.15,-1226C2118.95,-1224.64 2161.92,-1216.92 2194,-1193.5 2330.76,-1093.63 2374.88,-873.18 2385.89,-801.5"/>
<polygon fill="#757575" stroke="#757575" points="2389.33,-802.16 2387.31,-791.76 2382.41,-801.15 2389.33,-802.16"/>
</g>
<!-- src/screens/DashboardScreen.js&#45;&gt;src/contexts/UserContext.js -->
<g id="edge70" class="edge">
<title>src/screens/DashboardScreen.js&#45;&gt;src/contexts/UserContext.js</title>
<path fill="none" stroke="#757575" d="M1238.07,-543.41C1488.7,-550.9 2107.22,-572.78 2194,-608.5 2273.64,-641.28 2343.38,-720.33 2373.37,-757.95"/>
<polygon fill="#757575" stroke="#757575" points="2370.26,-759.66 2379.18,-765.37 2375.77,-755.34 2370.26,-759.66"/>
</g>
<!-- src/components/Navbar/Navbar.js -->
<g id="node60" class="node">
<title>src/components/Navbar/Navbar.js</title>
<path fill="none" stroke="#c6c5fe" d="M1662.33,-228C1662.33,-228 1456.67,-228 1456.67,-228 1452.83,-228 1449,-224.17 1449,-220.33 1449,-220.33 1449,-212.67 1449,-212.67 1449,-208.83 1452.83,-205 1456.67,-205 1456.67,-205 1662.33,-205 1662.33,-205 1666.17,-205 1670,-208.83 1670,-212.67 1670,-212.67 1670,-220.33 1670,-220.33 1670,-224.17 1666.17,-228 1662.33,-228"/>
<text text-anchor="middle" x="1559.5" y="-212.8" font-family="Arial" font-size="14.00" fill="#c6c5fe">src/components/Navbar/Navbar.js</text>
</g>
<!-- src/screens/DashboardScreen.js&#45;&gt;src/components/Navbar/Navbar.js -->
<g id="edge69" class="edge">
<title>src/screens/DashboardScreen.js&#45;&gt;src/components/Navbar/Navbar.js</title>
<path fill="none" stroke="#757575" d="M1204.2,-528.6C1245.74,-517.88 1295.6,-497.79 1325,-460.5 1387.43,-381.32 1287.65,-305.69 1361,-236.5 1392.62,-206.67 1441.03,-201.38 1482.01,-203.69"/>
<polygon fill="#757575" stroke="#757575" points="1481.61,-207.17 1491.84,-204.42 1482.13,-200.19 1481.61,-207.17"/>
</g>
<!-- src/screens/DashboardScreen.css -->
<g id="node66" class="node">
<title>src/screens/DashboardScreen.css</title>
<path fill="none" stroke="#cfffac" d="M1662.83,-513C1662.83,-513 1456.17,-513 1456.17,-513 1452.33,-513 1448.5,-509.17 1448.5,-505.33 1448.5,-505.33 1448.5,-497.67 1448.5,-497.67 1448.5,-493.83 1452.33,-490 1456.17,-490 1456.17,-490 1662.83,-490 1662.83,-490 1666.67,-490 1670.5,-493.83 1670.5,-497.67 1670.5,-497.67 1670.5,-505.33 1670.5,-505.33 1670.5,-509.17 1666.67,-513 1662.83,-513"/>
<text text-anchor="middle" x="1559.5" y="-497.8" font-family="Arial" font-size="14.00" fill="#cfffac">src/screens/DashboardScreen.css</text>
</g>
<!-- src/screens/DashboardScreen.js&#45;&gt;src/screens/DashboardScreen.css -->
<g id="edge71" class="edge">
<title>src/screens/DashboardScreen.js&#45;&gt;src/screens/DashboardScreen.css</title>
<path fill="none" stroke="#757575" d="M1238.45,-530.83C1298.7,-525.31 1374.5,-518.36 1437.21,-512.62"/>
<polygon fill="#757575" stroke="#757575" points="1437.21,-516.13 1446.85,-511.73 1436.57,-509.16 1437.21,-516.13"/>
</g>
<!-- src/components/Footer/Footer.js -->
<g id="node48" class="node">
<title>src/components/Footer/Footer.js</title>
<path fill="none" stroke="#c6c5fe" d="M1657.83,-146C1657.83,-146 1461.17,-146 1461.17,-146 1457.33,-146 1453.5,-142.17 1453.5,-138.33 1453.5,-138.33 1453.5,-130.67 1453.5,-130.67 1453.5,-126.83 1457.33,-123 1461.17,-123 1461.17,-123 1657.83,-123 1657.83,-123 1661.67,-123 1665.5,-126.83 1665.5,-130.67 1665.5,-130.67 1665.5,-138.33 1665.5,-138.33 1665.5,-142.17 1661.67,-146 1657.83,-146"/>
<text text-anchor="middle" x="1559.5" y="-130.8" font-family="Arial" font-size="14.00" fill="#c6c5fe">src/components/Footer/Footer.js</text>
</g>
<!-- src/screens/MainScreen.js&#45;&gt;src/components/Footer/Footer.js -->
<g id="edge72" class="edge">
<title>src/screens/MainScreen.js&#45;&gt;src/components/Footer/Footer.js</title>
<path fill="none" stroke="#757575" d="M1183.44,-189.55C1229.47,-179.02 1299.48,-163.93 1361,-154.5 1387.08,-150.5 1415.23,-147.11 1441.87,-144.31"/>
<polygon fill="#757575" stroke="#757575" points="1442.09,-147.81 1451.68,-143.3 1441.38,-140.84 1442.09,-147.81"/>
</g>
<!-- src/screens/MainScreen.js&#45;&gt;src/components/Navbar/Navbar.js -->
<g id="edge73" class="edge">
<title>src/screens/MainScreen.js&#45;&gt;src/components/Navbar/Navbar.js</title>
<path fill="none" stroke="#757575" d="M1220.39,-204.58C1283.05,-206.79 1368.27,-209.79 1437.48,-212.23"/>
<polygon fill="#757575" stroke="#757575" points="1437.25,-215.73 1447.37,-212.58 1437.5,-208.73 1437.25,-215.73"/>
</g>
<!-- src/screens/MainScreen.css -->
<g id="node67" class="node">
<title>src/screens/MainScreen.css</title>
<path fill="none" stroke="#cfffac" d="M1644.83,-105C1644.83,-105 1474.17,-105 1474.17,-105 1470.33,-105 1466.5,-101.17 1466.5,-97.33 1466.5,-97.33 1466.5,-89.67 1466.5,-89.67 1466.5,-85.83 1470.33,-82 1474.17,-82 1474.17,-82 1644.83,-82 1644.83,-82 1648.67,-82 1652.5,-85.83 1652.5,-89.67 1652.5,-89.67 1652.5,-97.33 1652.5,-97.33 1652.5,-101.17 1648.67,-105 1644.83,-105"/>
<text text-anchor="middle" x="1559.5" y="-89.8" font-family="Arial" font-size="14.00" fill="#cfffac">src/screens/MainScreen.css</text>
</g>
<!-- src/screens/MainScreen.js&#45;&gt;src/screens/MainScreen.css -->
<g id="edge74" class="edge">
<title>src/screens/MainScreen.js&#45;&gt;src/screens/MainScreen.css</title>
<path fill="none" stroke="#757575" d="M1212.77,-189.57C1248.76,-181.81 1290.78,-169.32 1325,-149.5 1344.58,-138.16 1340.56,-123.2 1361,-113.5 1389.7,-99.88 1423.34,-93.47 1454.64,-90.85"/>
<polygon fill="#757575" stroke="#757575" points="1454.81,-94.35 1464.54,-90.16 1454.32,-87.37 1454.81,-94.35"/>
</g>
<!-- src/App.test.js -->
<g id="node20" class="node">
<title>src/App.test.js</title>
<path fill="none" stroke="#c6c5fe" d="M256.83,-732C256.83,-732 171.17,-732 171.17,-732 167.33,-732 163.5,-728.17 163.5,-724.33 163.5,-724.33 163.5,-716.67 163.5,-716.67 163.5,-712.83 167.33,-709 171.17,-709 171.17,-709 256.83,-709 256.83,-709 260.67,-709 264.5,-712.83 264.5,-716.67 264.5,-716.67 264.5,-724.33 264.5,-724.33 264.5,-728.17 260.67,-732 256.83,-732"/>
<text text-anchor="middle" x="214" y="-716.8" font-family="Arial" font-size="14.00" fill="#c6c5fe">src/App.test.js</text>
</g>
<!-- src/App.test.js&#45;&gt;src/App.jsx -->
<g id="edge17" class="edge">
<title>src/App.test.js&#45;&gt;src/App.jsx</title>
<path fill="none" stroke="#757575" d="M264.59,-720.5C353.51,-720.5 539.28,-720.5 630.16,-720.5"/>
<polygon fill="#757575" stroke="#757575" points="630.03,-724 640.03,-720.5 630.03,-717 630.03,-724"/>
</g>
<!-- src/assets/Banner.png -->
<g id="node21" class="node">
<title>src/assets/Banner.png</title>
<path fill="none" stroke="#cfffac" d="M2061.83,-187C2061.83,-187 1926.17,-187 1926.17,-187 1922.33,-187 1918.5,-183.17 1918.5,-179.33 1918.5,-179.33 1918.5,-171.67 1918.5,-171.67 1918.5,-167.83 1922.33,-164 1926.17,-164 1926.17,-164 2061.83,-164 2061.83,-164 2065.67,-164 2069.5,-167.83 2069.5,-171.67 2069.5,-171.67 2069.5,-179.33 2069.5,-179.33 2069.5,-183.17 2065.67,-187 2061.83,-187"/>
<text text-anchor="middle" x="1994" y="-171.8" font-family="Arial" font-size="14.00" fill="#cfffac">src/assets/Banner.png</text>
</g>
<!-- src/assets/MR. Laptop Reseller_files/bundle.js -->
<g id="node22" class="node">
<title>src/assets/MR. Laptop Reseller_files/bundle.js</title>
<path fill="none" stroke="#cfffac" d="M353.33,-773C353.33,-773 74.67,-773 74.67,-773 70.83,-773 67,-769.17 67,-765.33 67,-765.33 67,-757.67 67,-757.67 67,-753.83 70.83,-750 74.67,-750 74.67,-750 353.33,-750 353.33,-750 357.17,-750 361,-753.83 361,-757.67 361,-757.67 361,-765.33 361,-765.33 361,-769.17 357.17,-773 353.33,-773"/>
<text text-anchor="middle" x="214" y="-757.8" font-family="Arial" font-size="14.00" fill="#cfffac">src/assets/MR. Laptop Reseller_files/bundle.js</text>
</g>
<!-- src/components/Advertise/Advertise.css -->
<g id="node24" class="node">
<title>src/components/Advertise/Advertise.css</title>
<path fill="none" stroke="#cfffac" d="M2114.83,-308C2114.83,-308 1873.17,-308 1873.17,-308 1869.33,-308 1865.5,-304.17 1865.5,-300.33 1865.5,-300.33 1865.5,-292.67 1865.5,-292.67 1865.5,-288.83 1869.33,-285 1873.17,-285 1873.17,-285 2114.83,-285 2114.83,-285 2118.67,-285 2122.5,-288.83 2122.5,-292.67 2122.5,-292.67 2122.5,-300.33 2122.5,-300.33 2122.5,-304.17 2118.67,-308 2114.83,-308"/>
<text text-anchor="middle" x="1994" y="-292.8" font-family="Arial" font-size="14.00" fill="#cfffac">src/components/Advertise/Advertise.css</text>
</g>
<!-- src/components/Advertise/Advertise.js&#45;&gt;src/components/Advertise/Advertise.css -->
<g id="edge18" class="edge">
<title>src/components/Advertise/Advertise.js&#45;&gt;src/components/Advertise/Advertise.css</title>
<path fill="none" stroke="#757575" d="M1682.99,-268.55C1736.27,-273.35 1798.96,-279 1853.98,-283.96"/>
<polygon fill="#757575" stroke="#757575" points="1853.45,-287.43 1863.72,-284.84 1854.08,-280.46 1853.45,-287.43"/>
</g>
<!-- src/components/Advertise/Advertise.js&#45;&gt;src/components/Layout/Product/Product.js -->
<g id="edge19" class="edge">
<title>src/components/Advertise/Advertise.js&#45;&gt;src/components/Layout/Product/Product.js</title>
<path fill="none" stroke="#757575" d="M1682.9,-247.97C1710.07,-251.48 1737,-260.04 1758,-277.5 1801.8,-313.91 1760.77,-354.24 1794,-400.5 1835.88,-458.8 1910.14,-501.06 1955.14,-522.81"/>
<polygon fill="#757575" stroke="#757575" points="1953.46,-525.89 1964,-527 1956.45,-519.56 1953.46,-525.89"/>
</g>
<!-- src/components/Layout/Product/Product.js&#45;&gt;src/contexts/UserContext.js -->
<g id="edge57" class="edge">
<title>src/components/Layout/Product/Product.js&#45;&gt;src/contexts/UserContext.js</title>
<path fill="none" stroke="#757575" d="M2129.79,-544.12C2152.06,-548.49 2174.3,-555.25 2194,-565.5 2281.52,-611.03 2349.71,-712.41 2376.57,-756.89"/>
<polygon fill="#757575" stroke="#757575" points="2373.48,-758.54 2381.59,-765.36 2379.51,-754.97 2373.48,-758.54"/>
</g>
<!-- src/components/Layout/Product/BookNowModal.js -->
<g id="node52" class="node">
<title>src/components/Layout/Product/BookNowModal.js</title>
<path fill="none" stroke="#cfffac" d="M2542.33,-571C2542.33,-571 2237.67,-571 2237.67,-571 2233.83,-571 2230,-567.17 2230,-563.33 2230,-563.33 2230,-555.67 2230,-555.67 2230,-551.83 2233.83,-548 2237.67,-548 2237.67,-548 2542.33,-548 2542.33,-548 2546.17,-548 2550,-551.83 2550,-555.67 2550,-555.67 2550,-563.33 2550,-563.33 2550,-567.17 2546.17,-571 2542.33,-571"/>
<text text-anchor="middle" x="2390" y="-555.8" font-family="Arial" font-size="14.00" fill="#cfffac">src/components/Layout/Product/BookNowModal.js</text>
</g>
<!-- src/components/Layout/Product/Product.js&#45;&gt;src/components/Layout/Product/BookNowModal.js -->
<g id="edge55" class="edge">
<title>src/components/Layout/Product/Product.js&#45;&gt;src/components/Layout/Product/BookNowModal.js</title>
<path fill="none" stroke="#757575" d="M2129.77,-546.34C2158.32,-547.79 2188.82,-549.34 2218.5,-550.85"/>
<polygon fill="#757575" stroke="#757575" points="2218.15,-554.33 2228.31,-551.34 2218.5,-547.34 2218.15,-554.33"/>
</g>
<!-- src/components/Layout/Product/Product.css -->
<g id="node53" class="node">
<title>src/components/Layout/Product/Product.css</title>
<path fill="none" stroke="#cfffac" d="M2522.83,-530C2522.83,-530 2257.17,-530 2257.17,-530 2253.33,-530 2249.5,-526.17 2249.5,-522.33 2249.5,-522.33 2249.5,-514.67 2249.5,-514.67 2249.5,-510.83 2253.33,-507 2257.17,-507 2257.17,-507 2522.83,-507 2522.83,-507 2526.67,-507 2530.5,-510.83 2530.5,-514.67 2530.5,-514.67 2530.5,-522.33 2530.5,-522.33 2530.5,-526.17 2526.67,-530 2522.83,-530"/>
<text text-anchor="middle" x="2390" y="-514.8" font-family="Arial" font-size="14.00" fill="#cfffac">src/components/Layout/Product/Product.css</text>
</g>
<!-- src/components/Layout/Product/Product.js&#45;&gt;src/components/Layout/Product/Product.css -->
<g id="edge56" class="edge">
<title>src/components/Layout/Product/Product.js&#45;&gt;src/components/Layout/Product/Product.css</title>
<path fill="none" stroke="#757575" d="M2129.77,-532.32C2164.55,-530.46 2202.23,-528.45 2237.79,-526.56"/>
<polygon fill="#757575" stroke="#757575" points="2237.95,-530.06 2247.75,-526.03 2237.57,-523.07 2237.95,-530.06"/>
</g>
<!-- src/firebase/firebase.init.js -->
<g id="node63" class="node">
<title>src/firebase/firebase.init.js</title>
<path fill="none" stroke="#cfffac" d="M2751.33,-810C2751.33,-810 2593.67,-810 2593.67,-810 2589.83,-810 2586,-806.17 2586,-802.33 2586,-802.33 2586,-794.67 2586,-794.67 2586,-790.83 2589.83,-787 2593.67,-787 2593.67,-787 2751.33,-787 2751.33,-787 2755.17,-787 2759,-790.83 2759,-794.67 2759,-794.67 2759,-802.33 2759,-802.33 2759,-806.17 2755.17,-810 2751.33,-810"/>
<text text-anchor="middle" x="2672.5" y="-794.8" font-family="Arial" font-size="14.00" fill="#cfffac">src/firebase/firebase.init.js</text>
</g>
<!-- src/contexts/UserContext.js&#45;&gt;src/firebase/firebase.init.js -->
<g id="edge66" class="edge">
<title>src/contexts/UserContext.js&#45;&gt;src/firebase/firebase.init.js</title>
<path fill="none" stroke="#757575" d="M2480.91,-784.91C2510.75,-787.04 2544.09,-789.42 2574.45,-791.58"/>
<polygon fill="#757575" stroke="#757575" points="2574.19,-795.07 2584.41,-792.29 2574.68,-788.09 2574.19,-795.07"/>
</g>
<!-- src/hooks/useToken.js -->
<g id="node64" class="node">
<title>src/hooks/useToken.js</title>
<path fill="none" stroke="#cfffac" d="M2739.33,-769C2739.33,-769 2605.67,-769 2605.67,-769 2601.83,-769 2598,-765.17 2598,-761.33 2598,-761.33 2598,-753.67 2598,-753.67 2598,-749.83 2601.83,-746 2605.67,-746 2605.67,-746 2739.33,-746 2739.33,-746 2743.17,-746 2747,-749.83 2747,-753.67 2747,-753.67 2747,-761.33 2747,-761.33 2747,-765.17 2743.17,-769 2739.33,-769"/>
<text text-anchor="middle" x="2672.5" y="-753.8" font-family="Arial" font-size="14.00" fill="#cfffac">src/hooks/useToken.js</text>
</g>
<!-- src/contexts/UserContext.js&#45;&gt;src/hooks/useToken.js -->
<g id="edge67" class="edge">
<title>src/contexts/UserContext.js&#45;&gt;src/hooks/useToken.js</title>
<path fill="none" stroke="#757575" d="M2480.91,-771.77C2514.74,-769.24 2553.08,-766.37 2586.46,-763.87"/>
<polygon fill="#757575" stroke="#757575" points="2586.35,-767.38 2596.06,-763.15 2585.83,-760.4 2586.35,-767.38"/>
</g>
<!-- src/components/Authentication/Reset.js -->
<g id="node30" class="node">
<title>src/components/Authentication/Reset.js</title>
<path fill="none" stroke="#cfffac" d="M333.33,-814C333.33,-814 94.67,-814 94.67,-814 90.83,-814 87,-810.17 87,-806.33 87,-806.33 87,-798.67 87,-798.67 87,-794.83 90.83,-791 94.67,-791 94.67,-791 333.33,-791 333.33,-791 337.17,-791 341,-794.83 341,-798.67 341,-798.67 341,-806.33 341,-806.33 341,-810.17 337.17,-814 333.33,-814"/>
<text text-anchor="middle" x="214" y="-798.8" font-family="Arial" font-size="14.00" fill="#cfffac">src/components/Authentication/Reset.js</text>
</g>
<!-- src/components/Blog/Blog.css -->
<g id="node31" class="node">
<title>src/components/Blog/Blog.css</title>
<path fill="none" stroke="#cfffac" d="M774.83,-855C774.83,-855 592.17,-855 592.17,-855 588.33,-855 584.5,-851.17 584.5,-847.33 584.5,-847.33 584.5,-839.67 584.5,-839.67 584.5,-835.83 588.33,-832 592.17,-832 592.17,-832 774.83,-832 774.83,-832 778.67,-832 782.5,-835.83 782.5,-839.67 782.5,-839.67 782.5,-847.33 782.5,-847.33 782.5,-851.17 778.67,-855 774.83,-855"/>
<text text-anchor="middle" x="683.5" y="-839.8" font-family="Arial" font-size="14.00" fill="#cfffac">src/components/Blog/Blog.css</text>
</g>
<!-- src/components/Blog/Blog.js -->
<g id="node32" class="node">
<title>src/components/Blog/Blog.js</title>
<path fill="none" stroke="#c6c5fe" d="M300.33,-855C300.33,-855 127.67,-855 127.67,-855 123.83,-855 120,-851.17 120,-847.33 120,-847.33 120,-839.67 120,-839.67 120,-835.83 123.83,-832 127.67,-832 127.67,-832 300.33,-832 300.33,-832 304.17,-832 308,-835.83 308,-839.67 308,-839.67 308,-847.33 308,-847.33 308,-851.17 304.17,-855 300.33,-855"/>
<text text-anchor="middle" x="214" y="-839.8" font-family="Arial" font-size="14.00" fill="#c6c5fe">src/components/Blog/Blog.js</text>
</g>
<!-- src/components/Blog/Blog.js&#45;&gt;src/components/Blog/Blog.css -->
<g id="edge24" class="edge">
<title>src/components/Blog/Blog.js&#45;&gt;src/components/Blog/Blog.css</title>
<path fill="none" stroke="#757575" d="M308.48,-843.5C384.83,-843.5 492.86,-843.5 573.2,-843.5"/>
<polygon fill="#757575" stroke="#757575" points="572.83,-847 582.83,-843.5 572.83,-840 572.83,-847"/>
</g>
<!-- src/components/Layout/UserTable/UserTable.css -->
<g id="node57" class="node">
<title>src/components/Layout/UserTable/UserTable.css</title>
<path fill="none" stroke="#cfffac" d="M2141.33,-871C2141.33,-871 1846.67,-871 1846.67,-871 1842.83,-871 1839,-867.17 1839,-863.33 1839,-863.33 1839,-855.67 1839,-855.67 1839,-851.83 1842.83,-848 1846.67,-848 1846.67,-848 2141.33,-848 2141.33,-848 2145.17,-848 2149,-851.83 2149,-855.67 2149,-855.67 2149,-863.33 2149,-863.33 2149,-867.17 2145.17,-871 2141.33,-871"/>
<text text-anchor="middle" x="1994" y="-855.8" font-family="Arial" font-size="14.00" fill="#cfffac">src/components/Layout/UserTable/UserTable.css</text>
</g>
<!-- src/components/Layout/UserTable/UserTable.js&#45;&gt;src/components/Layout/UserTable/UserTable.css -->
<g id="edge60" class="edge">
<title>src/components/Layout/UserTable/UserTable.js&#45;&gt;src/components/Layout/UserTable/UserTable.css</title>
<path fill="none" stroke="#757575" d="M1709.34,-858.84C1747.37,-858.93 1788.49,-859.03 1827.31,-859.12"/>
<polygon fill="#757575" stroke="#757575" points="1827.21,-862.62 1837.22,-859.14 1827.23,-855.62 1827.21,-862.62"/>
</g>
<!-- src/components/Layout/UserTable/UserTableItem.js -->
<g id="node58" class="node">
<title>src/components/Layout/UserTable/UserTableItem.js</title>
<path fill="none" stroke="#c6c5fe" d="M2149.33,-830C2149.33,-830 1838.67,-830 1838.67,-830 1834.83,-830 1831,-826.17 1831,-822.33 1831,-822.33 1831,-814.67 1831,-814.67 1831,-810.83 1834.83,-807 1838.67,-807 1838.67,-807 2149.33,-807 2149.33,-807 2153.17,-807 2157,-810.83 2157,-814.67 2157,-814.67 2157,-822.33 2157,-822.33 2157,-826.17 2153.17,-830 2149.33,-830"/>
<text text-anchor="middle" x="1994" y="-814.8" font-family="Arial" font-size="14.00" fill="#c6c5fe">src/components/Layout/UserTable/UserTableItem.js</text>
</g>
<!-- src/components/Layout/UserTable/UserTable.js&#45;&gt;src/components/Layout/UserTable/UserTableItem.js -->
<g id="edge61" class="edge">
<title>src/components/Layout/UserTable/UserTable.js&#45;&gt;src/components/Layout/UserTable/UserTableItem.js</title>
<path fill="none" stroke="#757575" d="M1689.97,-846.53C1741.1,-841.8 1799.98,-836.35 1852.16,-831.53"/>
<polygon fill="#757575" stroke="#757575" points="1852.39,-835.02 1862.03,-830.61 1851.75,-828.05 1852.39,-835.02"/>
</g>
<!-- src/components/Dashboard/Admin/Reported Items/ReportedItems.css -->
<g id="node38" class="node">
<title>src/components/Dashboard/Admin/Reported Items/ReportedItems.css</title>
<path fill="none" stroke="#cfffac" d="M895.33,-896C895.33,-896 471.67,-896 471.67,-896 467.83,-896 464,-892.17 464,-888.33 464,-888.33 464,-880.67 464,-880.67 464,-876.83 467.83,-873 471.67,-873 471.67,-873 895.33,-873 895.33,-873 899.17,-873 903,-876.83 903,-880.67 903,-880.67 903,-888.33 903,-888.33 903,-892.17 899.17,-896 895.33,-896"/>
<text text-anchor="middle" x="683.5" y="-880.8" font-family="Arial" font-size="14.00" fill="#cfffac">src/components/Dashboard/Admin/Reported Items/ReportedItems.css</text>
</g>
<!-- src/components/Dashboard/Admin/Reported Items/ReportedItems.js -->
<g id="node39" class="node">
<title>src/components/Dashboard/Admin/Reported Items/ReportedItems.js</title>
<path fill="none" stroke="#c6c5fe" d="M420.33,-896C420.33,-896 7.67,-896 7.67,-896 3.83,-896 0,-892.17 0,-888.33 0,-888.33 0,-880.67 0,-880.67 0,-876.83 3.83,-873 7.67,-873 7.67,-873 420.33,-873 420.33,-873 424.17,-873 428,-876.83 428,-880.67 428,-880.67 428,-888.33 428,-888.33 428,-892.17 424.17,-896 420.33,-896"/>
<text text-anchor="middle" x="214" y="-880.8" font-family="Arial" font-size="14.00" fill="#c6c5fe">src/components/Dashboard/Admin/Reported Items/ReportedItems.js</text>
</g>
<!-- src/components/Dashboard/Admin/Reported Items/ReportedItems.js&#45;&gt;src/components/Dashboard/Admin/Reported Items/ReportedItems.css -->
<g id="edge35" class="edge">
<title>src/components/Dashboard/Admin/Reported Items/ReportedItems.js&#45;&gt;src/components/Dashboard/Admin/Reported Items/ReportedItems.css</title>
<path fill="none" stroke="#757575" d="M428.23,-884.5C436.25,-884.5 444.3,-884.5 452.35,-884.5"/>
<polygon fill="#757575" stroke="#757575" points="452.21,-888 462.2,-884.5 452.2,-881 452.21,-888"/>
</g>
<!-- src/components/Layout/ProductTable/ProductTableItem.js -->
<g id="node54" class="node">
<title>src/components/Layout/ProductTable/ProductTableItem.js</title>
<path fill="none" stroke="#cfffac" d="M2167.33,-392C2167.33,-392 1820.67,-392 1820.67,-392 1816.83,-392 1813,-388.17 1813,-384.33 1813,-384.33 1813,-376.67 1813,-376.67 1813,-372.83 1816.83,-369 1820.67,-369 1820.67,-369 2167.33,-369 2167.33,-369 2171.17,-369 2175,-372.83 2175,-376.67 2175,-376.67 2175,-384.33 2175,-384.33 2175,-388.17 2171.17,-392 2167.33,-392"/>
<text text-anchor="middle" x="1994" y="-376.8" font-family="Arial" font-size="14.00" fill="#cfffac">src/components/Layout/ProductTable/ProductTableItem.js</text>
</g>
<!-- src/components/Layout/ProductTable/ProductTable.js&#45;&gt;src/components/Layout/ProductTable/ProductTableItem.js -->
<g id="edge58" class="edge">
<title>src/components/Layout/ProductTable/ProductTable.js&#45;&gt;src/components/Layout/ProductTable/ProductTableItem.js</title>
<path fill="none" stroke="#757575" d="M1727.41,-380.5C1751.64,-380.5 1776.75,-380.5 1801.42,-380.5"/>
<polygon fill="#757575" stroke="#757575" points="1801.21,-384 1811.21,-380.5 1801.21,-377 1801.21,-384"/>
</g>
<!-- src/components/Extra/Extra.css -->
<g id="node45" class="node">
<title>src/components/Extra/Extra.css</title>
<path fill="none" stroke="#cfffac" d="M779.33,-937C779.33,-937 587.67,-937 587.67,-937 583.83,-937 580,-933.17 580,-929.33 580,-929.33 580,-921.67 580,-921.67 580,-917.83 583.83,-914 587.67,-914 587.67,-914 779.33,-914 779.33,-914 783.17,-914 787,-917.83 787,-921.67 787,-921.67 787,-929.33 787,-929.33 787,-933.17 783.17,-937 779.33,-937"/>
<text text-anchor="middle" x="683.5" y="-921.8" font-family="Arial" font-size="14.00" fill="#cfffac">src/components/Extra/Extra.css</text>
</g>
<!-- src/components/Extra/Extra.js -->
<g id="node46" class="node">
<title>src/components/Extra/Extra.js</title>
<path fill="none" stroke="#c6c5fe" d="M304.83,-937C304.83,-937 123.17,-937 123.17,-937 119.33,-937 115.5,-933.17 115.5,-929.33 115.5,-929.33 115.5,-921.67 115.5,-921.67 115.5,-917.83 119.33,-914 123.17,-914 123.17,-914 304.83,-914 304.83,-914 308.67,-914 312.5,-917.83 312.5,-921.67 312.5,-921.67 312.5,-929.33 312.5,-929.33 312.5,-933.17 308.67,-937 304.83,-937"/>
<text text-anchor="middle" x="214" y="-921.8" font-family="Arial" font-size="14.00" fill="#c6c5fe">src/components/Extra/Extra.js</text>
</g>
<!-- src/components/Extra/Extra.js&#45;&gt;src/components/Extra/Extra.css -->
<g id="edge47" class="edge">
<title>src/components/Extra/Extra.js&#45;&gt;src/components/Extra/Extra.css</title>
<path fill="none" stroke="#757575" d="M312.72,-925.5C387.22,-925.5 489.98,-925.5 568.28,-925.5"/>
<polygon fill="#757575" stroke="#757575" points="568.13,-929 578.13,-925.5 568.13,-922 568.13,-929"/>
</g>
<!-- src/components/Footer/Footer.css -->
<g id="node47" class="node">
<title>src/components/Footer/Footer.css</title>
<path fill="none" stroke="#cfffac" d="M2097.33,-105C2097.33,-105 1890.67,-105 1890.67,-105 1886.83,-105 1883,-101.17 1883,-97.33 1883,-97.33 1883,-89.67 1883,-89.67 1883,-85.83 1886.83,-82 1890.67,-82 1890.67,-82 2097.33,-82 2097.33,-82 2101.17,-82 2105,-85.83 2105,-89.67 2105,-89.67 2105,-97.33 2105,-97.33 2105,-101.17 2101.17,-105 2097.33,-105"/>
<text text-anchor="middle" x="1994" y="-89.8" font-family="Arial" font-size="14.00" fill="#cfffac">src/components/Footer/Footer.css</text>
</g>
<!-- src/components/Footer/Footer.js&#45;&gt;src/components/Footer/Footer.css -->
<g id="edge48" class="edge">
<title>src/components/Footer/Footer.js&#45;&gt;src/components/Footer/Footer.css</title>
<path fill="none" stroke="#757575" d="M1665.75,-124.52C1727.91,-118.63 1806.87,-111.14 1871.65,-105"/>
<polygon fill="#757575" stroke="#757575" points="1871.61,-108.52 1881.24,-104.09 1870.95,-101.55 1871.61,-108.52"/>
</g>
<!-- src/components/Hero/Hero.css -->
<g id="node49" class="node">
<title>src/components/Hero/Hero.css</title>
<path fill="none" stroke="#cfffac" d="M2087.83,-146C2087.83,-146 1900.17,-146 1900.17,-146 1896.33,-146 1892.5,-142.17 1892.5,-138.33 1892.5,-138.33 1892.5,-130.67 1892.5,-130.67 1892.5,-126.83 1896.33,-123 1900.17,-123 1900.17,-123 2087.83,-123 2087.83,-123 2091.67,-123 2095.5,-126.83 2095.5,-130.67 2095.5,-130.67 2095.5,-138.33 2095.5,-138.33 2095.5,-142.17 2091.67,-146 2087.83,-146"/>
<text text-anchor="middle" x="1994" y="-130.8" font-family="Arial" font-size="14.00" fill="#cfffac">src/components/Hero/Hero.css</text>
</g>
<!-- src/components/Hero/Hero.js&#45;&gt;src/assets/Banner.png -->
<g id="edge49" class="edge">
<title>src/components/Hero/Hero.js&#45;&gt;src/assets/Banner.png</title>
<path fill="none" stroke="#757575" d="M1655.95,-175.5C1730.92,-175.5 1834.41,-175.5 1906.87,-175.5"/>
<polygon fill="#757575" stroke="#757575" points="1906.72,-179 1916.72,-175.5 1906.72,-172 1906.72,-179"/>
</g>
<!-- src/components/Hero/Hero.js&#45;&gt;src/components/Hero/Hero.css -->
<g id="edge50" class="edge">
<title>src/components/Hero/Hero.js&#45;&gt;src/components/Hero/Hero.css</title>
<path fill="none" stroke="#757575" d="M1655.95,-166.45C1722.42,-160.15 1811.31,-151.72 1881.12,-145.11"/>
<polygon fill="#757575" stroke="#757575" points="1881.02,-148.63 1890.64,-144.2 1880.36,-141.66 1881.02,-148.63"/>
</g>
<!-- src/components/Layout/User/User.css -->
<g id="node55" class="node">
<title>src/components/Layout/User/User.css</title>
<path fill="none" stroke="#cfffac" d="M798.33,-978C798.33,-978 568.67,-978 568.67,-978 564.83,-978 561,-974.17 561,-970.33 561,-970.33 561,-962.67 561,-962.67 561,-958.83 564.83,-955 568.67,-955 568.67,-955 798.33,-955 798.33,-955 802.17,-955 806,-958.83 806,-962.67 806,-962.67 806,-970.33 806,-970.33 806,-974.17 802.17,-978 798.33,-978"/>
<text text-anchor="middle" x="683.5" y="-962.8" font-family="Arial" font-size="14.00" fill="#cfffac">src/components/Layout/User/User.css</text>
</g>
<!-- src/components/Layout/User/User.js -->
<g id="node56" class="node">
<title>src/components/Layout/User/User.js</title>
<path fill="none" stroke="#c6c5fe" d="M323.83,-978C323.83,-978 104.17,-978 104.17,-978 100.33,-978 96.5,-974.17 96.5,-970.33 96.5,-970.33 96.5,-962.67 96.5,-962.67 96.5,-958.83 100.33,-955 104.17,-955 104.17,-955 323.83,-955 323.83,-955 327.67,-955 331.5,-958.83 331.5,-962.67 331.5,-962.67 331.5,-970.33 331.5,-970.33 331.5,-974.17 327.67,-978 323.83,-978"/>
<text text-anchor="middle" x="214" y="-962.8" font-family="Arial" font-size="14.00" fill="#c6c5fe">src/components/Layout/User/User.js</text>
</g>
<!-- src/components/Layout/User/User.js&#45;&gt;src/components/Layout/User/User.css -->
<g id="edge59" class="edge">
<title>src/components/Layout/User/User.js&#45;&gt;src/components/Layout/User/User.css</title>
<path fill="none" stroke="#757575" d="M331.76,-966.5C397.86,-966.5 480.77,-966.5 549.38,-966.5"/>
<polygon fill="#757575" stroke="#757575" points="549.19,-970 559.19,-966.5 549.19,-963 549.19,-970"/>
</g>
<!-- src/components/Layout/UserTable/UserTableItem.js&#45;&gt;src/contexts/UserContext.js -->
<g id="edge62" class="edge">
<title>src/components/Layout/UserTable/UserTableItem.js&#45;&gt;src/contexts/UserContext.js</title>
<path fill="none" stroke="#757575" d="M2112.95,-806.53C2168.72,-800.86 2234.62,-794.17 2288.05,-788.75"/>
<polygon fill="#757575" stroke="#757575" points="2288.15,-792.26 2297.75,-787.76 2287.45,-785.29 2288.15,-792.26"/>
</g>
<!-- src/components/Navbar/Navbar.css -->
<g id="node59" class="node">
<title>src/components/Navbar/Navbar.css</title>
<path fill="none" stroke="#cfffac" d="M2101.83,-228C2101.83,-228 1886.17,-228 1886.17,-228 1882.33,-228 1878.5,-224.17 1878.5,-220.33 1878.5,-220.33 1878.5,-212.67 1878.5,-212.67 1878.5,-208.83 1882.33,-205 1886.17,-205 1886.17,-205 2101.83,-205 2101.83,-205 2105.67,-205 2109.5,-208.83 2109.5,-212.67 2109.5,-212.67 2109.5,-220.33 2109.5,-220.33 2109.5,-224.17 2105.67,-228 2101.83,-228"/>
<text text-anchor="middle" x="1994" y="-212.8" font-family="Arial" font-size="14.00" fill="#cfffac">src/components/Navbar/Navbar.css</text>
</g>
<!-- src/components/Navbar/Navbar.js&#45;&gt;src/contexts/UserContext.js -->
<g id="edge64" class="edge">
<title>src/components/Navbar/Navbar.js&#45;&gt;src/contexts/UserContext.js</title>
<path fill="none" stroke="#757575" d="M1670.22,-225.85C1850.33,-241.31 2189.36,-270.97 2194,-275.5 2242.7,-323 2203.76,-516.74 2230,-579.5 2261.76,-655.48 2331.45,-726.22 2367.08,-759.14"/>
<polygon fill="#757575" stroke="#757575" points="2364.49,-761.51 2374.24,-765.65 2369.2,-756.34 2364.49,-761.51"/>
</g>
<!-- src/components/Navbar/Navbar.js&#45;&gt;src/components/Navbar/Navbar.css -->
<g id="edge63" class="edge">
<title>src/components/Navbar/Navbar.js&#45;&gt;src/components/Navbar/Navbar.css</title>
<path fill="none" stroke="#757575" d="M1670.48,-216.5C1730.32,-216.5 1804.61,-216.5 1866.81,-216.5"/>
<polygon fill="#757575" stroke="#757575" points="1866.76,-220 1876.76,-216.5 1866.76,-213 1866.76,-220"/>
</g>
<!-- src/components/Products/Products.css -->
<g id="node61" class="node">
<title>src/components/Products/Products.css</title>
<path fill="none" stroke="#cfffac" d="M801.33,-1019C801.33,-1019 565.67,-1019 565.67,-1019 561.83,-1019 558,-1015.17 558,-1011.33 558,-1011.33 558,-1003.67 558,-1003.67 558,-999.83 561.83,-996 565.67,-996 565.67,-996 801.33,-996 801.33,-996 805.17,-996 809,-999.83 809,-1003.67 809,-1003.67 809,-1011.33 809,-1011.33 809,-1015.17 805.17,-1019 801.33,-1019"/>
<text text-anchor="middle" x="683.5" y="-1003.8" font-family="Arial" font-size="14.00" fill="#cfffac">src/components/Products/Products.css</text>
</g>
<!-- src/components/Products/Products.js -->
<g id="node62" class="node">
<title>src/components/Products/Products.js</title>
<path fill="none" stroke="#c6c5fe" d="M326.33,-1019C326.33,-1019 101.67,-1019 101.67,-1019 97.83,-1019 94,-1015.17 94,-1011.33 94,-1011.33 94,-1003.67 94,-1003.67 94,-999.83 97.83,-996 101.67,-996 101.67,-996 326.33,-996 326.33,-996 330.17,-996 334,-999.83 334,-1003.67 334,-1003.67 334,-1011.33 334,-1011.33 334,-1015.17 330.17,-1019 326.33,-1019"/>
<text text-anchor="middle" x="214" y="-1003.8" font-family="Arial" font-size="14.00" fill="#c6c5fe">src/components/Products/Products.js</text>
</g>
<!-- src/components/Products/Products.js&#45;&gt;src/components/Products/Products.css -->
<g id="edge65" class="edge">
<title>src/components/Products/Products.js&#45;&gt;src/components/Products/Products.css</title>
<path fill="none" stroke="#757575" d="M334.48,-1007.5C399.06,-1007.5 479.06,-1007.5 546.07,-1007.5"/>
<polygon fill="#757575" stroke="#757575" points="546.05,-1011 556.05,-1007.5 546.05,-1004 546.05,-1011"/>
</g>
<!-- src/hooks/useTitle.js -->
<g id="node65" class="node">
<title>src/hooks/useTitle.js</title>
<path fill="none" stroke="#cfffac" d="M275.83,-1060C275.83,-1060 152.17,-1060 152.17,-1060 148.33,-1060 144.5,-1056.17 144.5,-1052.33 144.5,-1052.33 144.5,-1044.67 144.5,-1044.67 144.5,-1040.83 148.33,-1037 152.17,-1037 152.17,-1037 275.83,-1037 275.83,-1037 279.67,-1037 283.5,-1040.83 283.5,-1044.67 283.5,-1044.67 283.5,-1052.33 283.5,-1052.33 283.5,-1056.17 279.67,-1060 275.83,-1060"/>
<text text-anchor="middle" x="214" y="-1044.8" font-family="Arial" font-size="14.00" fill="#cfffac">src/hooks/useTitle.js</text>
</g>
<!-- tailwind.config.js -->
<g id="node68" class="node">
<title>tailwind.config.js</title>
<path fill="none" stroke="#cfffac" d="M263.83,-1101C263.83,-1101 164.17,-1101 164.17,-1101 160.33,-1101 156.5,-1097.17 156.5,-1093.33 156.5,-1093.33 156.5,-1085.67 156.5,-1085.67 156.5,-1081.83 160.33,-1078 164.17,-1078 164.17,-1078 263.83,-1078 263.83,-1078 267.67,-1078 271.5,-1081.83 271.5,-1085.67 271.5,-1085.67 271.5,-1093.33 271.5,-1093.33 271.5,-1097.17 267.67,-1101 263.83,-1101"/>
<text text-anchor="middle" x="214" y="-1085.8" font-family="Arial" font-size="14.00" fill="#cfffac">tailwind.config.js</text>
</g>
</g>
</svg>
